{
  "accessors": [
    {
      "bufferView": 2,
      "componentType": 5126,
      "count": 24,
      "max": [
        2203.989501953125,
        99.01673889160156,
        2218.443115234375
      ],
      "min": [
        -2203.989501953125,
        -99.01673889160156,
        -2218.443115234375
      ],
      "type": "VEC3"
    },
    {
      "bufferView": 2,
      "byteOffset": 288,
      "componentType": 5126,
      "count": 24,
      "max": [
        1.0,
        1.0,
        1.0
      ],
      "min": [
        -1.0,
        -1.0,
        -1.0
      ],
      "type": "VEC3"
    },
    {
      "bufferView": 1,
      "componentType": 5126,
      "count": 24,
      "max": [
        1.0,
        1.0
      ],
      "min": [
        0.0,
        0.0
      ],
      "type": "VEC2"
    },
    {
      "bufferView": 0,
      "componentType": 5125,
      "count": 36,
      "type": "SCALAR"
    },
    {
      "bufferView": 2,
      "byteOffset": 576,
      "componentType": 5126,
      "count": 2480,
      "max": [
        8.375059127807617,
        9.211268424987793,
        7.088561058044434
      ],
      "min": [
        -9.153749465942383,
        -9.31833553314209,
        -9.245240211486816
      ],
      "type": "VEC3"
    },
    {
      "bufferView": 2,
      "byteOffset": 30336,
      "componentType": 5126,
      "count": 2480,
      "max": [
        1.0,
        1.0,
        1.0
      ],
      "min": [
        -1.0,
        -1.0,
        -1.0
      ],
      "type": "VEC3"
    },
    {
      "bufferView": 1,
      "byteOffset": 192,
      "componentType": 5126,
      "count": 2480,
      "max": [
        0.875,
        1.0
      ],
      "min": [
        0.125,
        0.0
      ],
      "type": "VEC2"
    },
    {
      "bufferView": 0,
      "byteOffset": 144,
      "componentType": 5125,
      "count": 3780,
      "type": "SCALAR"
    },
    {
      "bufferView": 2,
      "byteOffset": 60096,
      "componentType": 5126,
      "count": 2654,
      "max": [
        8.455094337463379,
        9.037590980529785,
        7.1625566482543945
      ],
      "min": [
        -0.8290034532546997,
        -5.610545635223389,
        -8.705785751342773
      ],
      "type": "VEC3"
    },
    {
      "bufferView": 2,
      "byteOffset": 91944,
      "componentType": 5126,
      "count": 2654,
      "max": [
        1.0,
        1.0,
        1.0
      ],
      "min": [
        -1.0,
        -1.0,
        -1.0
      ],
      "type": "VEC3"
    },
    {
      "bufferView": 1,
      "byteOffset": 20032,
      "componentType": 5126,
      "count": 2654,
      "max": [
        0.875,
        1.0
      ],
      "min": [
        0.125,
        0.0
      ],
      "type": "VEC2"
    },
    {
      "bufferView": 0,
      "byteOffset": 15264,
      "componentType": 5125,
      "count": 3984,
      "type": "SCALAR"
    },
    {
      "bufferView": 2,
      "byteOffset": 123792,
      "componentType": 5126,
      "count": 1418,
      "max": [
        8.978384971618652,
        9.500258445739746,
        7.4393720626831055
      ],
      "min": [
        -9.116028785705566,
        -9.500258445739746,
        -8.758480072021484
      ],
      "type": "VEC3"
    },
    {
      "bufferView": 2,
      "byteOffset": 140808,
      "componentType": 5126,
      "count": 1418,
      "max": [
        1.0,
        1.0,
        1.0
      ],
      "min": [
        -1.0,
        -1.0,
        -1.0
      ],
      "type": "VEC3"
    },
    {
      "bufferView": 1,
      "byteOffset": 41264,
      "componentType": 5126,
      "count": 1418,
      "max": [
        0.875,
        1.0
      ],
      "min": [
        0.125,
        0.0
      ],
      "type": "VEC2"
    },
    {
      "bufferView": 0,
      "byteOffset": 31200,
      "componentType": 5125,
      "count": 2142,
      "type": "SCALAR"
    },
    {
      "bufferView": 2,
      "byteOffset": 157824,
      "componentType": 5126,
      "count": 504,
      "max": [
        8.140616416931152,
        9.037590980529785,
        5.397287845611572
      ],
      "min": [
        2.5760741233825684,
        -3.997396469116211,
        -8.443970680236816
      ],
      "type": "VEC3"
    },
    {
      "bufferView": 2,
      "byteOffset": 163872,
      "componentType": 5126,
      "count": 504,
      "max": [
        1.0,
        1.0,
        1.0
      ],
      "min": [
        -1.0,
        -1.0,
        -1.0
      ],
      "type": "VEC3"
    },
    {
      "bufferView": 1,
      "byteOffset": 52608,
      "componentType": 5126,
      "count": 504,
      "max": [
        0.875,
        1.0
      ],
      "min": [
        0.125,
        0.0
      ],
      "type": "VEC2"
    },
    {
      "bufferView": 0,
      "byteOffset": 39768,
      "componentType": 5125,
      "count": 756,
      "type": "SCALAR"
    },
    {
      "bufferView": 2,
      "byteOffset": 169920,
      "componentType": 5126,
      "count": 78,
      "max": [
        8.342572212219238,
        2.057906150817871,
        -0.7451387643814087
      ],
      "min": [
        -0.9045873284339905,
        -5.66554069519043,
        -8.326066970825195
      ],
      "type": "VEC3"
    },
    {
      "bufferView": 2,
      "byteOffset": 170856,
      "componentType": 5126,
      "count": 78,
      "max": [
        0.9959689378738403,
        0.9999154210090637,
        0.9997422099113464
      ],
      "min": [
        -0.9776223301887512,
        -0.9995480179786682,
        -0.9997422695159912
      ],
      "type": "VEC3"
    },
    {
      "bufferView": 1,
      "byteOffset": 56640,
      "componentType": 5126,
      "count": 78,
      "max": [
        0.875,
        1.0
      ],
      "min": [
        0.125,
        0.0
      ],
      "type": "VEC2"
    },
    {
      "bufferView": 0,
      "byteOffset": 42792,
      "componentType": 5125,
      "count": 114,
      "type": "SCALAR"
    },
    {
      "bufferView": 2,
      "byteOffset": 171792,
      "componentType": 5126,
      "count": 312,
      "max": [
        2.9995813369750977,
        -3.101945400238037,
        6.88899040222168
      ],
      "min": [
        -0.7696681022644043,
        -5.406214714050293,
        -5.8090901374816895
      ],
      "type": "VEC3"
    },
    {
      "bufferView": 2,
      "byteOffset": 175536,
      "componentType": 5126,
      "count": 312,
      "max": [
        1.0,
        1.0,
        1.0
      ],
      "min": [
        -1.0,
        -1.0,
        -1.0
      ],
      "type": "VEC3"
    },
    {
      "bufferView": 1,
      "byteOffset": 57264,
      "componentType": 5126,
      "count": 312,
      "max": [
        0.875,
        1.0
      ],
      "min": [
        0.125,
        0.0
      ],
      "type": "VEC2"
    },
    {
      "bufferView": 0,
      "byteOffset": 43248,
      "componentType": 5125,
      "count": 468,
      "type": "SCALAR"
    },
    {
      "bufferView": 2,
      "byteOffset": 179280,
      "componentType": 5126,
      "count": 1126,
      "max": [
        8.63045883178711,
        2.199422836303711,
        4.152323246002197
      ],
      "min": [
        -9.116028785705566,
        -9.500258445739746,
        -4.593903541564941
      ],
      "type": "VEC3"
    },
    {
      "bufferView": 2,
      "byteOffset": 192792,
      "componentType": 5126,
      "count": 1126,
      "max": [
        1.0,
        1.0,
        1.0
      ],
      "min": [
        -1.0,
        -1.0,
        -1.0
      ],
      "type": "VEC3"
    },
    {
      "bufferView": 1,
      "byteOffset": 59760,
      "componentType": 5126,
      "count": 1126,
      "max": [
        0.875,
        1.0
      ],
      "min": [
        0.125,
        0.0
      ],
      "type": "VEC2"
    },
    {
      "bufferView": 0,
      "byteOffset": 45120,
      "componentType": 5125,
      "count": 1740,
      "type": "SCALAR"
    },
    {
      "bufferView": 2,
      "byteOffset": 206304,
      "componentType": 5126,
      "count": 1152,
      "max": [
        9.153749465942383,
        2.3942551612854004,
        3.9207916259765625
      ],
      "min": [
        -9.153749465942383,
        -9.31833553314209,
        -4.407691955566406
      ],
      "type": "VEC3"
    },
    {
      "bufferView": 2,
      "byteOffset": 220128,
      "componentType": 5126,
      "count": 1152,
      "max": [
        1.0,
        1.0,
        1.0
      ],
      "min": [
        -1.0,
        -1.0,
        -1.0
      ],
      "type": "VEC3"
    },
    {
      "bufferView": 1,
      "byteOffset": 68768,
      "componentType": 5126,
      "count": 1152,
      "max": [
        0.875,
        1.0
      ],
      "min": [
        0.125,
        0.0
      ],
      "type": "VEC2"
    },
    {
      "bufferView": 0,
      "byteOffset": 52080,
      "componentType": 5125,
      "count": 1728,
      "type": "SCALAR"
    },
    {
      "bufferView": 2,
      "byteOffset": 233952,
      "componentType": 5126,
      "count": 1632,
      "max": [
        8.390596389770508,
        2.2317922115325928,
        3.8015122413635254
      ],
      "min": [
        -0.5943031311035156,
        -5.488208293914795,
        -4.247951030731201
      ],
      "type": "VEC3"
    },
    {
      "bufferView": 2,
      "byteOffset": 253536,
      "componentType": 5126,
      "count": 1632,
      "max": [
        1.0,
        1.0,
        1.0
      ],
      "min": [
        -1.0,
        -1.0,
        -1.0
      ],
      "type": "VEC3"
    },
    {
      "bufferView": 1,
      "byteOffset": 77984,
      "componentType": 5126,
      "count": 1632,
      "max": [
        0.875,
        1.0
      ],
      "min": [
        0.125,
        0.0
      ],
      "type": "VEC2"
    },
    {
      "bufferView": 0,
      "byteOffset": 58992,
      "componentType": 5125,
      "count": 2448,
      "type": "SCALAR"
    },
    {
      "bufferView": 2,
      "byteOffset": 273120,
      "componentType": 5126,
      "count": 72,
      "max": [
        4.211314678192139,
        -1.754725694656372,
        2.110239267349243
      ],
      "min": [
        2.751439094543457,
        -3.997396469116211,
        0.46224769949913025
      ],
      "type": "VEC3"
    },
    {
      "bufferView": 2,
      "byteOffset": 273984,
      "componentType": 5126,
      "count": 72,
      "max": [
        0.7531734704971313,
        0.9995956420898438,
        0.7531241178512573
      ],
      "min": [
        -0.7531734704971313,
        -0.9979155659675598,
        -0.7493108510971069
      ],
      "type": "VEC3"
    },
    {
      "bufferView": 1,
      "byteOffset": 91040,
      "componentType": 5126,
      "count": 72,
      "max": [
        0.875,
        1.0
      ],
      "min": [
        0.125,
        0.0
      ],
      "type": "VEC2"
    },
    {
      "bufferView": 0,
      "byteOffset": 68784,
      "componentType": 5125,
      "count": 108,
      "type": "SCALAR"
    },
    {
      "bufferView": 2,
      "byteOffset": 274848,
      "componentType": 5126,
      "count": 24,
      "max": [
        8.113489151000977,
        -5.048096656799316,
        -3.7857677936553955
      ],
      "min": [
        3.085235595703125,
        -5.610546112060547,
        -4.04833984375
      ],
      "type": "VEC3"
    },
    {
      "bufferView": 2,
      "byteOffset": 275136,
      "componentType": 5126,
      "count": 24,
      "max": [
        0.9706260561943054,
        0.998270571231842,
        0.9953442811965942
      ],
      "min": [
        -0.9706258177757263,
        -0.998270571231842,
        -0.9953444600105286
      ],
      "type": "VEC3"
    },
    {
      "bufferView": 1,
      "byteOffset": 91616,
      "componentType": 5126,
      "count": 24,
      "max": [
        0.875,
        1.0
      ],
      "min": [
        0.125,
        0.0
      ],
      "type": "VEC2"
    },
    {
      "bufferView": 0,
      "byteOffset": 69216,
      "componentType": 5125,
      "count": 36,
      "type": "SCALAR"
    }
  ],
  "asset": {
    "extras": {
      "author": "Dickyhewage (https://sketchfab.com/Dickyhewage)",
      "license": "CC-BY-4.0 (http://creativecommons.org/licenses/by/4.0/)",
      "source": "https://sketchfab.com/3d-models/creepy-swamp-house-free-download-0840baedfdd44bd1aedc83a3b01cdf8a",
      "title": "Creepy swamp House | Free Download"
    },
    "generator": "Sketchfab-13.66.0",
    "version": "2.0"
  },
  "bufferViews": [
    {
      "buffer": 0,
      "byteLength": 69360,
      "name": "floatBufferViews",
      "target": 34963
    },
    {
      "buffer": 0,
      "byteLength": 91808,
      "byteOffset": 69360,
      "byteStride": 8,
      "name": "floatBufferViews",
      "target": 34962
    },
    {
      "buffer": 0,
      "byteLength": 275424,
      "byteOffset": 161168,
      "byteStride": 12,
      "name": "floatBufferViews",
      "target": 34962
    }
  ],
  "buffers": [
    {
      "byteLength": 436592,
      "uri": "scene.bin"
    }
  ],
  "materials": [
    {
      "doubleSided": true,
      "name": "2__0",
      "pbrMetallicRoughness": {
        "metallicFactor": 0.0,
        "roughnessFactor": 0.6
      }
    },
    {
      "doubleSided": true,
      "name": "GROUND",
      "pbrMetallicRoughness": {
        "baseColorFactor": [
          0.72225,
          0.81,
          0.5994,
          1.0
        ],
        "metallicFactor": 0.0,
        "roughnessFactor": 0.2970655488
      }
    },
    {
      "doubleSided": true,
      "name": "material",
      "pbrMetallicRoughness": {
        "baseColorFactor": [
          0.63,
          0.48825,
          0.315,
          1.0
        ],
        "metallicFactor": 0.0,
        "roughnessFactor": 0.6
      }
    },
    {
      "doubleSided": true,
      "name": "material_3",
      "pbrMetallicRoughness": {
        "baseColorFactor": [
          0.46,
          0.38548,
          0.2116,
          1.0
        ],
        "metallicFactor": 0.0,
        "roughnessFactor": 0.6
      }
    },
    {
      "doubleSided": true,
      "name": "material_4",
      "pbrMetallicRoughness": {
        "baseColorFactor": [
          0.35,
          0.2828,
          0.126,
          1.0
        ],
        "metallicFactor": 0.0,
        "roughnessFactor": 0.6
      }
    },
    {
      "doubleSided": true,
      "name": "material_5",
      "pbrMetallicRoughness": {
        "baseColorFactor": [
          0.64,
          0.55936,
          0.3712,
          1.0
        ],
        "metallicFactor": 0.0,
        "roughnessFactor": 0.6
      }
    },
    {
      "doubleSided": true,
      "name": "material_6",
      "pbrMetallicRoughness": {
        "baseColorFactor": [
          0.45,
          0.3042,
          0.126,
          1.0
        ],
        "metallicFactor": 0.0,
        "roughnessFactor": 0.6
      }
    }
  ],
  "meshes": [
    {
      "name": "GROUND_GROUND_0",
      "primitives": [
        {
          "attributes": {
            "NORMAL": 1,
            "POSITION": 0,
            "TEXCOORD_0": 2
          },
          "indices": 3,
          "material": 1,
          "mode": 4
        }
      ]
    },
    {
      "name": "2_3_0",
      "primitives": [
        {
          "attributes": {
            "NORMAL": 5,
            "POSITION": 4,
            "TEXCOORD_0": 6
          },
          "indices": 7,
          "material": 2,
          "mode": 4
        }
      ]
    },
    {
      "name": "2_2_0",
      "primitives": [
        {
          "attributes": {
            "NORMAL": 9,
            "POSITION": 8,
            "TEXCOORD_0": 10
          },
          "indices": 11,
          "material": 3,
          "mode": 4
        }
      ]
    },
    {
      "name": "2_5_0",
      "primitives": [
        {
          "attributes": {
            "NORMAL": 13,
            "POSITION": 12,
            "TEXCOORD_0": 14
          },
          "indices": 15,
          "material": 4,
          "mode": 4
        }
      ]
    },
    {
      "name": "2_1_0",
      "primitives": [
        {
          "attributes": {
            "NORMAL": 17,
            "POSITION": 16,
            "TEXCOORD_0": 18
          },
          "indices": 19,
          "material": 5,
          "mode": 4
        }
      ]
    },
    {
      "name": "2__0",
      "primitives": [
        {
          "attributes": {
            "NORMAL": 21,
            "POSITION": 20,
            "TEXCOORD_0": 22
          },
          "indices": 23,
          "material": 0,
          "mode": 4
        }
      ]
    },
    {
      "name": "2_4_0",
      "primitives": [
        {
          "attributes": {
            "NORMAL": 25,
            "POSITION": 24,
            "TEXCOORD_0": 26
          },
          "indices": 27,
          "material": 6,
          "mode": 4
        }
      ]
    },
    {
      "name": "1_5_0",
      "primitives": [
        {
          "attributes": {
            "NORMAL": 29,
            "POSITION": 28,
            "TEXCOORD_0": 30
          },
          "indices": 31,
          "material": 4,
          "mode": 4
        }
      ]
    },
    {
      "name": "1_4_0",
      "primitives": [
        {
          "attributes": {
            "NORMAL": 33,
            "POSITION": 32,
            "TEXCOORD_0": 34
          },
          "indices": 35,
          "material": 6,
          "mode": 4
        }
      ]
    },
    {
      "name": "1_2_0",
      "primitives": [
        {
          "attributes": {
            "NORMAL": 37,
            "POSITION": 36,
            "TEXCOORD_0": 38
          },
          "indices": 39,
          "material": 3,
          "mode": 4
        }
      ]
    },
    {
      "name": "1_1_0",
      "primitives": [
        {
          "attributes": {
            "NORMAL": 41,
            "POSITION": 40,
            "TEXCOORD_0": 42
          },
          "indices": 43,
          "material": 5,
          "mode": 4
        }
      ]
    },
    {
      "name": "1__0",
      "primitives": [
        {
          "attributes": {
            "NORMAL": 45,
            "POSITION": 44,
            "TEXCOORD_0": 46
          },
          "indices": 47,
          "material": 0,
          "mode": 4
        }
      ]
    }
  ],
  "nodes": [
    {
      "children": [
        1
      ],
      "matrix": [
        1.0,
        0.0,
        0.0,
        0.0,
        0.0,
        2.220446049250313e-16,
        -1.0,
        0.0,
        0.0,
        1.0,
        2.220446049250313e-16,
        0.0,
        0.0,
        0.0,
        0.0,
        1.0
      ],
      "name": "Sketchfab_model"
    },
    {
      "children": [
        2
      ],
      "matrix": [
        1.0,
        0.0,
        0.0,
        0.0,
        0.0,
        0.0,
        1.0,
        0.0,
        0.0,
        -1.0,
        0.0,
        0.0,
        0.0,
        0.0,
        0.0,
        1.0
      ],
      "name": "1239e16a2af64521a7b11a2079a82c90.fbx"
    },
    {
      "children": [
        3,
        5,
        12
      ],
      "name": "RootNode"
    },
    {
      "children": [
        4
      ],
      "matrix": [
        1.0,
        0.0,
        0.0,
        0.0,
        0.0,
        1.0,
        0.0,
        0.0,
        0.0,
        0.0,
        1.0,
        0.0,
        0.0,
        -988.8239135742188,
        539.76123046875,
        1.0
      ],
      "name": "GROUND"
    },
    {
      "mesh": 0,
      "name": "GROUND_GROUND_0"
    },
    {
      "children": [
        6,
        7,
        8,
        9,
        10,
        11
      ],
      "matrix": [
        100.0,
        0.0,
        0.0,
        0.0,
        0.0,
        100.0,
        0.0,
        0.0,
        0.0,
        0.0,
        100.0,
        0.0,
        19.98982810974121,
        8.423554420471191,
        -5.885031223297119,
        1.0
      ],
      "name": "2"
    },
    {
      "mesh": 1,
      "name": "2_3_0"
    },
    {
      "mesh": 2,
      "name": "2_2_0"
    },
    {
      "mesh": 3,
      "name": "2_5_0"
    },
    {
      "mesh": 4,
      "name": "2_1_0"
    },
    {
      "mesh": 5,
      "name": "2__0"
    },
    {
      "mesh": 6,
      "name": "2_4_0"
    },
    {
      "children": [
        13,
        14,
        15,
        16,
        17
      ],
      "matrix": [
        100.0,
        0.0,
        0.0,
        0.0,
        0.0,
        100.0,
        0.0,
        0.0,
        0.0,
        0.0,
        100.0,
        0.0,
        19.98982810974121,
        8.423554420471191,
        1475.16650390625,
        1.0
      ],
      "name": "1"
    },
    {
      "mesh": 7,
      "name": "1_5_0"
    },
    {
      "mesh": 8,
      "name": "1_4_0"
    },
    {
      "mesh": 9,
      "name": "1_2_0"
    },
    {
      "mesh": 10,
      "name": "1_1_0"
    },
    {
      "mesh": 11,
      "name": "1__0"
    }
  ],
  "scene": 0,
  "scenes": [
    {
      "name": "Sketchfab_Scene",
      "nodes": [
        0
      ]
    }
  ]
}
