{
  "accessors": [
    {
      "bufferView": 2,
      "componentType": 5126,
      "count": 24,
      "max": [
        167.50462341308594,
        -425.9902648925781,
        645.1004638671875
      ],
      "min": [
        -300.23834228515625,
        -764.0106201171875,
        513.8781127929688
      ],
      "type": "VEC3"
    },
    {
      "bufferView": 2,
      "byteOffset": 288,
      "componentType": 5126,
      "count": 24,
      "max": [
        1.0,
        1.0,
        1.0
      ],
      "min": [
        -1.0,
        -1.0,
        -3.255897581766476e-06
      ],
      "type": "VEC3"
    },
    {
      "bufferView": 3,
      "componentType": 5126,
      "count": 24,
      "max": [
        1.0,
        6.200484392593353e-08,
        1.3048867231191252e-07,
        1.0
      ],
      "min": [
        -1.8383699510599039e-13,
        -3.255897581766476e-06,
        -1.0,
        -1.0
      ],
      "type": "VEC4"
    },
    {
      "bufferView": 1,
      "componentType": 5126,
      "count": 24,
      "max": [
        0.986670732498169,
        0.999500036239624
      ],
      "min": [
        0.0005000000237487257,
        0.0005000000237487257
      ],
      "type": "VEC2"
    },
    {
      "bufferView": 0,
      "componentType": 5125,
      "count": 36,
      "type": "SCALAR"
    },
    {
      "bufferView": 2,
      "byteOffset": 576,
      "componentType": 5126,
      "count": 56,
      "max": [
        152.61996459960938,
        -455.0917663574219,
        698.288330078125
      ],
      "min": [
        -6.49664306640625,
        -732.2174682617188,
        569.9354858398438
      ],
      "type": "VEC3"
    },
    {
      "bufferView": 2,
      "byteOffset": 1248,
      "componentType": 5126,
      "count": 56,
      "max": [
        0.9952961802482605,
        0.9859327673912048,
        -0.09687957167625427
      ],
      "min": [
        -0.9952961802482605,
        -0.9859327077865601,
        -1.0
      ],
      "type": "VEC3"
    },
    {
      "bufferView": 1,
      "byteOffset": 192,
      "componentType": 5126,
      "count": 56,
      "max": [
        0.43537625670433044,
        1.0
      ],
      "min": [
        0.0,
        0.0
      ],
      "type": "VEC2"
    },
    {
      "bufferView": 0,
      "byteOffset": 144,
      "componentType": 5125,
      "count": 66,
      "type": "SCALAR"
    },
    {
      "bufferView": 2,
      "byteOffset": 1920,
      "componentType": 5126,
      "count": 46,
      "max": [
        -336.7990417480469,
        -460.0039978027344,
        844.1535034179688
      ],
      "min": [
        -494.0293884277344,
        -616.7470703125,
        786.7067260742188
      ],
      "type": "VEC3"
    },
    {
      "bufferView": 2,
      "byteOffset": 2472,
      "componentType": 5126,
      "count": 46,
      "max": [
        0.8589985370635986,
        0.8658012747764587,
        1.0
      ],
      "min": [
        -0.8631179928779602,
        -0.8509783744812012,
        0.4999995529651642
      ],
      "type": "VEC3"
    },
    {
      "bufferView": 1,
      "byteOffset": 640,
      "componentType": 5126,
      "count": 46,
      "max": [
        0.9950173497200012,
        1.0
      ],
      "min": [
        0.0,
        -1.1714608597336823e-16
      ],
      "type": "VEC2"
    },
    {
      "bufferView": 0,
      "byteOffset": 408,
      "componentType": 5125,
      "count": 225,
      "type": "SCALAR"
    },
    {
      "bufferView": 2,
      "byteOffset": 3024,
      "componentType": 5126,
      "count": 530,
      "max": [
        199.1548309326172,
        -405.63104248046875,
        863.3893432617188
      ],
      "min": [
        -608.9298706054688,
        -826.862060546875,
        38.71813201904297
      ],
      "type": "VEC3"
    },
    {
      "bufferView": 2,
      "byteOffset": 9384,
      "componentType": 5126,
      "count": 530,
      "max": [
        1.0,
        1.0,
        1.0
      ],
      "min": [
        -1.0,
        -1.0,
        -1.0
      ],
      "type": "VEC3"
    },
    {
      "bufferView": 3,
      "byteOffset": 384,
      "componentType": 5126,
      "count": 530,
      "max": [
        1.0,
        1.0,
        1.0,
        1.0
      ],
      "min": [
        -1.0,
        -1.0,
        -1.0,
        1.0
      ],
      "type": "VEC4"
    },
    {
      "bufferView": 1,
      "byteOffset": 1008,
      "componentType": 5126,
      "count": 530,
      "max": [
        0.9872795343399048,
        0.9909999966621399
      ],
      "min": [
        0.008999999612569809,
        0.008999999612569809
      ],
      "type": "VEC2"
    },
    {
      "bufferView": 0,
      "byteOffset": 1308,
      "componentType": 5125,
      "count": 1074,
      "type": "SCALAR"
    },
    {
      "bufferView": 2,
      "byteOffset": 15744,
      "componentType": 5126,
      "count": 16,
      "max": [
        -320.3465881347656,
        -441.0567932128906,
        788.8735961914063
      ],
      "min": [
        -598.8895874023438,
        -747.2742919921875,
        736.1478881835938
      ],
      "type": "VEC3"
    },
    {
      "bufferView": 2,
      "byteOffset": 15936,
      "componentType": 5126,
      "count": 16,
      "max": [
        0.09403815120458603,
        0.9460492134094238,
        0.9955686926841736
      ],
      "min": [
        -0.9955686926841736,
        -0.946049690246582,
        0.09403808414936066
      ],
      "type": "VEC3"
    },
    {
      "bufferView": 3,
      "byteOffset": 8864,
      "componentType": 5126,
      "count": 16,
      "max": [
        0.9955686330795288,
        1.9671425377509877e-07,
        0.09403839707374573,
        1.0
      ],
      "min": [
        -0.9955686926841736,
        -1.0,
        -0.09403843432664871,
        -1.0
      ],
      "type": "VEC4"
    },
    {
      "bufferView": 1,
      "byteOffset": 5248,
      "componentType": 5126,
      "count": 16,
      "max": [
        0.8582154512405396,
        0.9666666388511658
      ],
      "min": [
        0.0192982517182827,
        0.017543865367770195
      ],
      "type": "VEC2"
    },
    {
      "bufferView": 0,
      "byteOffset": 5604,
      "componentType": 5125,
      "count": 24,
      "type": "SCALAR"
    },
    {
      "bufferView": 2,
      "byteOffset": 16128,
      "componentType": 5126,
      "count": 741,
      "max": [
        155.3911895751953,
        -215.99305725097656,
        743.3352661132813
      ],
      "min": [
        -9.268078804016113,
        -773.4142456054688,
        563.0350952148438
      ],
      "type": "VEC3"
    },
    {
      "bufferView": 2,
      "byteOffset": 25020,
      "componentType": 5126,
      "count": 741,
      "max": [
        0.9594779014587402,
        1.0,
        1.0
      ],
      "min": [
        -0.959479033946991,
        -1.0,
        -1.0
      ],
      "type": "VEC3"
    },
    {
      "bufferView": 3,
      "byteOffset": 9120,
      "componentType": 5126,
      "count": 741,
      "max": [
        1.0,
        1.0,
        0.9981268644332886,
        1.0
      ],
      "min": [
        -1.0,
        -0.9999650716781616,
        -1.0,
        1.0
      ],
      "type": "VEC4"
    },
    {
      "bufferView": 1,
      "byteOffset": 5376,
      "componentType": 5126,
      "count": 741,
      "max": [
        0.9883630275726318,
        0.9950000047683716
      ],
      "min": [
        0.004999999888241291,
        0.004999999888241291
      ],
      "type": "VEC2"
    },
    {
      "bufferView": 0,
      "byteOffset": 5700,
      "componentType": 5125,
      "count": 1248,
      "type": "SCALAR"
    },
    {
      "bufferView": 2,
      "byteOffset": 33912,
      "componentType": 5126,
      "count": 484,
      "max": [
        -334.69140625,
        -327.7197265625,
        844.5224609375
      ],
      "min": [
        -511.09564208984375,
        -618.8350219726563,
        780.0842895507813
      ],
      "type": "VEC3"
    },
    {
      "bufferView": 2,
      "byteOffset": 39720,
      "componentType": 5126,
      "count": 484,
      "max": [
        0.9806771874427795,
        0.9225635528564453,
        1.0
      ],
      "min": [
        -0.9806748032569885,
        -0.9225634336471558,
        -1.0
      ],
      "type": "VEC3"
    },
    {
      "bufferView": 3,
      "byteOffset": 20976,
      "componentType": 5126,
      "count": 484,
      "max": [
        0.996643602848053,
        0.9997422099113464,
        0.9883780479431152,
        1.0
      ],
      "min": [
        -0.9966427683830261,
        -0.9997417330741882,
        -0.9883778095245361,
        1.0
      ],
      "type": "VEC4"
    },
    {
      "bufferView": 1,
      "byteOffset": 11304,
      "componentType": 5126,
      "count": 484,
      "max": [
        0.9803333282470703,
        0.9990000128746033
      ],
      "min": [
        0.023346368223428726,
        0.0010000000474974513
      ],
      "type": "VEC2"
    },
    {
      "bufferView": 0,
      "byteOffset": 10692,
      "componentType": 5125,
      "count": 1176,
      "type": "SCALAR"
    }
  ],
  "asset": {
    "extras": {
      "author": "JJangdol (https://sketchfab.com/Hambugi_jjangdol)",
      "license": "CC-BY-4.0 (http://creativecommons.org/licenses/by/4.0/)",
      "source": "https://sketchfab.com/3d-models/low-poly-deep-fryer-basket-skimmer-set-1ba1067d7ec14f6ea6bd025f6f920dc9",
      "title": "Low poly - Deep Fryer, Basket, Skimmer Set"
    },
    "generator": "Sketchfab-16.74.0",
    "version": "2.0"
  },
  "bufferViews": [
    {
      "buffer": 0,
      "byteLength": 15396,
      "name": "floatBufferViews",
      "target": 34963
    },
    {
      "buffer": 0,
      "byteLength": 15176,
      "byteOffset": 15396,
      "byteStride": 8,
      "name": "floatBufferViews",
      "target": 34962
    },
    {
      "buffer": 0,
      "byteLength": 45528,
      "byteOffset": 30572,
      "byteStride": 12,
      "name": "floatBufferViews",
      "target": 34962
    },
    {
      "buffer": 0,
      "byteLength": 28720,
      "byteOffset": 76100,
      "byteStride": 16,
      "name": "floatBufferViews",
      "target": 34962
    }
  ],
  "buffers": [
    {
      "byteLength": 104820,
      "uri": "scene.bin"
    }
  ],
  "extensionsUsed": [
    "KHR_materials_transmission",
    "KHR_materials_specular"
  ],
  "images": [
    {
      "uri": "textures/Frier_Mesh_MD__0_baseColor.png"
    },
    {
      "uri": "textures/Frier_Mesh_MD__0_normal.png"
    },
    {
      "uri": "textures/frier_oil_baseColor.png"
    },
    {
      "uri": "textures/frier_oil_metallicRoughness.png"
    },
    {
      "uri": "textures/frier_oil_normal.png"
    },
    {
      "uri": "textures/frier_oil_transmission.png"
    },
    {
      "uri": "textures/FB_mesh_baseColor.png"
    },
    {
      "uri": "textures/FB_S_Mesh_baseColor.png"
    },
    {
      "uri": "textures/Frier_baseColor.png"
    },
    {
      "uri": "textures/Frier_metallicRoughness.png"
    },
    {
      "uri": "textures/Frier_normal.png"
    },
    {
      "uri": "textures/Fry_Basket_baseColor.png"
    },
    {
      "uri": "textures/Fry_Basket_metallicRoughness.png"
    },
    {
      "uri": "textures/Fry_Basket_normal.png"
    },
    {
      "uri": "textures/Fry_Basket_S_baseColor.png"
    },
    {
      "uri": "textures/Fry_Basket_S_metallicRoughness.png"
    },
    {
      "uri": "textures/Fry_Basket_S_normal.png"
    }
  ],
  "materials": [
    {
      "alphaMode": "BLEND",
      "doubleSided": true,
      "name": "Frier_Mesh_MD__0",
      "normalTexture": {
        "index": 1
      },
      "pbrMetallicRoughness": {
        "baseColorTexture": {
          "index": 0
        },
        "metallicFactor": 0.2605722226962977,
        "roughnessFactor": 0.10209554924357864
      }
    },
    {
      "alphaMode": "BLEND",
      "doubleSided": true,
      "extensions": {
        "KHR_materials_specular": {
          "specularColorFactor": [
            1.0,
            1.0,
            1.0
          ],
          "specularFactor": 0.0
        },
        "KHR_materials_transmission": {
          "transmissionFactor": 1.0,
          "transmissionTexture": {
            "index": 5
          }
        }
      },
      "name": "frier_oil",
      "normalTexture": {
        "index": 4
      },
      "pbrMetallicRoughness": {
        "baseColorTexture": {
          "index": 2
        },
        "metallicRoughnessTexture": {
          "index": 3
        },
        "roughnessFactor": 0.24228645268252244
      }
    },
    {
      "alphaMode": "BLEND",
      "doubleSided": true,
      "name": "FB_mesh",
      "pbrMetallicRoughness": {
        "baseColorTexture": {
          "index": 6
        }
      }
    },
    {
      "alphaMode": "BLEND",
      "doubleSided": true,
      "name": "FB_S_Mesh",
      "pbrMetallicRoughness": {
        "baseColorTexture": {
          "index": 7
        },
        "roughnessFactor": 0.6
      }
    },
    {
      "doubleSided": true,
      "name": "Frier",
      "normalTexture": {
        "index": 10,
        "scale": 0.3
      },
      "pbrMetallicRoughness": {
        "baseColorTexture": {
          "index": 8
        },
        "metallicRoughnessTexture": {
          "index": 9
        },
        "roughnessFactor": 0.2
      }
    },
    {
      "doubleSided": true,
      "name": "Fry_Basket",
      "normalTexture": {
        "index": 13
      },
      "pbrMetallicRoughness": {
        "baseColorTexture": {
          "index": 11
        },
        "metallicRoughnessTexture": {
          "index": 12
        },
        "roughnessFactor": 0.236191196011264
      }
    },
    {
      "doubleSided": true,
      "name": "Fry_Basket_S",
      "normalTexture": {
        "index": 16
      },
      "pbrMetallicRoughness": {
        "baseColorTexture": {
          "index": 14
        },
        "metallicRoughnessTexture": {
          "index": 15
        },
        "roughnessFactor": 0.3459058160939157
      }
    }
  ],
  "meshes": [
    {
      "name": "Frier_oil_frier_oil_0",
      "primitives": [
        {
          "attributes": {
            "NORMAL": 1,
            "POSITION": 0,
            "TANGENT": 2,
            "TEXCOORD_0": 3
          },
          "indices": 4,
          "material": 1,
          "mode": 4
        }
      ]
    },
    {
      "name": "FB_Mesh_FB_mesh_0",
      "primitives": [
        {
          "attributes": {
            "NORMAL": 6,
            "POSITION": 5,
            "TEXCOORD_0": 7
          },
          "indices": 8,
          "material": 2,
          "mode": 4
        }
      ]
    },
    {
      "name": "FB_s_Mesh_FB_S_Mesh_0",
      "primitives": [
        {
          "attributes": {
            "NORMAL": 10,
            "POSITION": 9,
            "TEXCOORD_0": 11
          },
          "indices": 12,
          "material": 3,
          "mode": 4
        }
      ]
    },
    {
      "name": "Frier_MD_Frier_0",
      "primitives": [
        {
          "attributes": {
            "NORMAL": 14,
            "POSITION": 13,
            "TANGENT": 15,
            "TEXCOORD_0": 16
          },
          "indices": 17,
          "material": 4,
          "mode": 4
        }
      ]
    },
    {
      "name": "Frier_Mesh_MD__0",
      "primitives": [
        {
          "attributes": {
            "NORMAL": 19,
            "POSITION": 18,
            "TANGENT": 20,
            "TEXCOORD_0": 21
          },
          "indices": 22,
          "material": 0,
          "mode": 4
        }
      ]
    },
    {
      "name": "Fry_Basket_MD_Fry_Basket_0",
      "primitives": [
        {
          "attributes": {
            "NORMAL": 24,
            "POSITION": 23,
            "TANGENT": 25,
            "TEXCOORD_0": 26
          },
          "indices": 27,
          "material": 5,
          "mode": 4
        }
      ]
    },
    {
      "name": "Fry_Basket_S_MD_Fry_Basket_S_0",
      "primitives": [
        {
          "attributes": {
            "NORMAL": 29,
            "POSITION": 28,
            "TANGENT": 30,
            "TEXCOORD_0": 31
          },
          "indices": 32,
          "material": 6,
          "mode": 4
        }
      ]
    }
  ],
  "nodes": [
    {
      "children": [
        1
      ],
      "matrix": [
        1.0,
        0.0,
        0.0,
        0.0,
        0.0,
        2.220446049250313e-16,
        -1.0,
        0.0,
        0.0,
        1.0,
        2.220446049250313e-16,
        0.0,
        0.0,
        0.0,
        0.0,
        1.0
      ],
      "name": "Sketchfab_model"
    },
    {
      "children": [
        2
      ],
      "matrix": [
        0.0010000000474974513,
        0.0,
        0.0,
        0.0,
        0.0,
        0.0,
        0.0010000000474974513,
        0.0,
        0.0,
        -0.0010000000474974513,
        0.0,
        0.0,
        0.0,
        0.0,
        0.0,
        1.0
      ],
      "name": "93b3d347a3e948c09a217ee54bf84af3.fbx"
    },
    {
      "children": [
        3,
        6,
        9,
        12,
        15,
        18,
        21
      ],
      "name": "RootNode"
    },
    {
      "children": [
        4
      ],
      "matrix": [
        -0.9999999999999964,
        -1.2246467991473436e-16,
        8.74227744754944e-08,
        0.0,
        -3.943835569646705e-15,
        0.999999999999999,
        -4.371138885329166e-08,
        0.0,
        -8.742277447549432e-08,
        -4.371138885329183e-08,
        -0.9999999999999956,
        0.0,
        0.0,
        0.0,
        0.0,
        1.0
      ],
      "name": "Frier_oil"
    },
    {
      "children": [
        5
      ],
      "matrix": [
        1.0,
        0.0,
        0.0,
        0.0,
        0.0,
        -6.657902732962767e-07,
        -0.9999999999997784,
        0.0,
        0.0,
        0.9999999999997784,
        -6.657902732962767e-07,
        0.0,
        -1.82097828388214,
        -43.5385398864746,
        -497.962799072266,
        1.0
      ],
      "name": "Object_4"
    },
    {
      "mesh": 0,
      "name": "Frier_oil_frier_oil_0"
    },
    {
      "children": [
        7
      ],
      "matrix": [
        -0.9999999999999964,
        -1.2246467991473515e-16,
        8.74227744754944e-08,
        0.0,
        -1.4365442871310634e-14,
        0.9999999999999867,
        -1.6292068373314227e-07,
        0.0,
        -8.742277447549321e-08,
        -1.629206837331429e-07,
        -0.9999999999999831,
        0.0,
        0.0,
        0.0,
        0.0,
        1.0
      ],
      "name": "FB_Mesh"
    },
    {
      "children": [
        8
      ],
      "matrix": [
        1.0,
        0.0,
        0.0,
        0.0,
        0.0,
        6.123233995736766e-17,
        -1.0,
        0.0,
        -0.0,
        1.0,
        6.123233995736766e-17,
        0.0,
        -4.32506895065308,
        -37.3174896240234,
        -516.247375488281,
        1.0
      ],
      "name": "Object_7"
    },
    {
      "mesh": 1,
      "name": "FB_Mesh_FB_mesh_0"
    },
    {
      "children": [
        10
      ],
      "matrix": [
        -0.9999999999999964,
        1.2246467991473515e-16,
        -8.74227744754944e-08,
        0.0,
        1.4365442871310634e-14,
        0.9999999999999867,
        -1.6292068373314227e-07,
        0.0,
        8.742277447549321e-08,
        -1.629206837331429e-07,
        -0.9999999999999831,
        0.0,
        0.0,
        0.0,
        0.0,
        1.0
      ],
      "name": "FB_s_Mesh"
    },
    {
      "children": [
        11
      ],
      "matrix": [
        1.0,
        0.0,
        0.0,
        0.0,
        0.0,
        6.123233995736766e-17,
        -1.0,
        0.0,
        -0.0,
        1.0,
        6.123233995736766e-17,
        0.0,
        -59.4820556640625,
        -34.9748992919922,
        -439.492340087891,
        1.0
      ],
      "name": "Object_10"
    },
    {
      "mesh": 2,
      "name": "FB_s_Mesh_FB_S_Mesh_0"
    },
    {
      "children": [
        13
      ],
      "matrix": [
        -0.999999999999996,
        -1.2246467991473515e-16,
        8.742277447549436e-08,
        0.0,
        8.429289247950676e-14,
        0.9999999999995338,
        9.655991549785888e-07,
        0.0,
        -8.742277447545373e-08,
        9.655991549785926e-07,
        -0.9999999999995297,
        0.0,
        0.0,
        0.0,
        0.0,
        1.0
      ],
      "name": "Frier_MD"
    },
    {
      "children": [
        14
      ],
      "matrix": [
        1.0,
        0.0,
        0.0,
        0.0,
        0.0,
        6.123233995736766e-17,
        -1.0,
        0.0,
        -0.0,
        1.0,
        6.123233995736766e-17,
        0.0,
        -0.747049510478973,
        -38.7181243896484,
        -505.169403076172,
        1.0
      ],
      "name": "Object_13"
    },
    {
      "mesh": 3,
      "name": "Frier_MD_Frier_0"
    },
    {
      "children": [
        16
      ],
      "matrix": [
        -0.9999999999999964,
        -1.2246467991473515e-16,
        8.74227744754944e-08,
        0.0,
        -1.4365442871310634e-14,
        0.9999999999999867,
        -1.6292068373314227e-07,
        0.0,
        -8.742277447549321e-08,
        -1.629206837331429e-07,
        -0.9999999999999831,
        0.0,
        0.0,
        0.0,
        0.0,
        1.0
      ],
      "name": "Frier_Mesh_MD"
    },
    {
      "children": [
        17
      ],
      "matrix": [
        1.0,
        0.0,
        0.0,
        0.0,
        0.0,
        6.123233995736766e-17,
        -1.0,
        0.0,
        -0.0,
        1.0,
        6.123233995736766e-17,
        0.0,
        -0.747797191143036,
        -38.7187805175781,
        -505.169586181641,
        1.0
      ],
      "name": "Object_16"
    },
    {
      "mesh": 4,
      "name": "Frier_Mesh_MD__0"
    },
    {
      "children": [
        19
      ],
      "matrix": [
        -0.9999999999999809,
        -1.748455532694148e-07,
        -8.742277447549306e-08,
        0.0,
        -1.7484553902643367e-07,
        0.9999999999999715,
        -1.6292069883217543e-07,
        0.0,
        8.742280296145029e-08,
        -1.6292068354669017e-07,
        -0.9999999999999829,
        0.0,
        0.0,
        0.0,
        0.0,
        1.0
      ],
      "name": "Fry_Basket_MD"
    },
    {
      "children": [
        20
      ],
      "matrix": [
        1.0,
        -2.842171733132417e-14,
        5.082197855638565e-21,
        0.0,
        5.082197857378893e-21,
        6.123233995736766e-17,
        -1.0,
        0.0,
        2.842171733132417e-14,
        1.0,
        6.123233995736766e-17,
        0.0,
        -4.32519435882568,
        -37.3174591064453,
        -516.247375488281,
        1.0
      ],
      "name": "Object_19"
    },
    {
      "mesh": 5,
      "name": "Fry_Basket_MD_Fry_Basket_0"
    },
    {
      "children": [
        22
      ],
      "matrix": [
        -0.9999999999999964,
        1.2246467991473515e-16,
        -8.74227744754944e-08,
        0.0,
        1.4365442871310634e-14,
        0.9999999999999867,
        -1.6292068373314227e-07,
        0.0,
        8.742277447549321e-08,
        -1.629206837331429e-07,
        -0.9999999999999831,
        0.0,
        0.0,
        0.0,
        0.0,
        1.0
      ],
      "name": "Fry_Basket_S_MD"
    },
    {
      "children": [
        23
      ],
      "matrix": [
        1.0,
        0.0,
        0.0,
        0.0,
        0.0,
        6.123233995736766e-17,
        -1.0,
        0.0,
        -0.0,
        1.0,
        6.123233995736766e-17,
        0.0,
        -59.4820556640625,
        -34.9748992919922,
        -439.492340087891,
        1.0
      ],
      "name": "Object_22"
    },
    {
      "mesh": 6,
      "name": "Fry_Basket_S_MD_Fry_Basket_S_0"
    }
  ],
  "samplers": [
    {
      "magFilter": 9729,
      "minFilter": 9987,
      "wrapS": 10497,
      "wrapT": 10497
    }
  ],
  "scene": 0,
  "scenes": [
    {
      "name": "Sketchfab_Scene",
      "nodes": [
        0
      ]
    }
  ],
  "textures": [
    {
      "sampler": 0,
      "source": 0
    },
    {
      "sampler": 0,
      "source": 1
    },
    {
      "sampler": 0,
      "source": 2
    },
    {
      "sampler": 0,
      "source": 3
    },
    {
      "sampler": 0,
      "source": 4
    },
    {
      "sampler": 0,
      "source": 5
    },
    {
      "sampler": 0,
      "source": 6
    },
    {
      "sampler": 0,
      "source": 7
    },
    {
      "sampler": 0,
      "source": 8
    },
    {
      "sampler": 0,
      "source": 9
    },
    {
      "sampler": 0,
      "source": 10
    },
    {
      "sampler": 0,
      "source": 11
    },
    {
      "sampler": 0,
      "source": 12
    },
    {
      "sampler": 0,
      "source": 13
    },
    {
      "sampler": 0,
      "source": 14
    },
    {
      "sampler": 0,
      "source": 15
    },
    {
      "sampler": 0,
      "source": 16
    }
  ]
}
