{
  "accessors": [
    {
      "bufferView": 3,
      "componentType": 5126,
      "count": 692,
      "max": [
        0.6503878235816956,
        2.442904472351074,
        0.24837884306907654
      ],
      "min": [
        -0.8937456011772156,
        1.663878151703102e-06,
        -0.2738165259361267
      ],
      "type": "VEC3"
    },
    {
      "bufferView": 3,
      "byteOffset": 8304,
      "componentType": 5126,
      "count": 692,
      "max": [
        0.9390119910240173,
        0.9928371906280518,
        0.999293327331543
      ],
      "min": [
        -0.9406936764717102,
        -0.6692994832992554,
        -0.9997622966766357
      ],
      "type": "VEC3"
    },
    {
      "bufferView": 2,
      "componentType": 5126,
      "count": 692,
      "max": [
        0.9999822378158569,
        0.9945595860481262
      ],
      "min": [
        0.003304988145828247,
        0.002999841468408704
      ],
      "type": "VEC2"
    },
    {
      "bufferView": 1,
      "componentType": 5125,
      "count": 2424,
      "type": "SCALAR"
    },
    {
      "bufferView": 5,
      "componentType": 5126,
      "count": 21,
      "max": [
        1.0,
        0.3849969506263733,
        0.6049081087112427,
        0.0,
        0.6049081683158875,
        1.0,
        0.3001621961593628,
        0.0,
        0.3529929518699646,
        0.6101227402687073,
        1.0,
        0.0,
        0.14651525020599365,
        0.0,
        1.1171083450317383,
        1.0
      ],
      "min": [
        0.5730983018875122,
        -0.6160398721694946,
        -0.35677769780158997,
        0.0,
        -0.3884701132774353,
        0.777466356754303,
        -0.5941733121871948,
        0.0,
        -0.6050698757171631,
        0.0,
        0.7860340476036072,
        0.0,
        -0.36158332228660583,
        -2.137083053588867,
        -0.020270681008696556,
        1.0
      ],
      "type": "MAT4"
    },
    {
      "bufferView": 0,
      "componentType": 5123,
      "count": 692,
      "type": "VEC4"
    },
    {
      "bufferView": 4,
      "componentType": 5126,
      "count": 692,
      "max": [
        1.0,
        0.5,
        0.2864263951778412,
        0.112141452729702
      ],
      "min": [
        0.3581468164920807,
        0.0,
        0.0,
        0.0
      ],
      "type": "VEC4"
    },
    {
      "bufferView": 6,
      "componentType": 5126,
      "count": 95,
      "max": [
        8.0
      ],
      "min": [
        0.0
      ],
      "type": "SCALAR"
    },
    {
      "bufferView": 8,
      "componentType": 5126,
      "count": 95,
      "max": [
        -0.007850250229239464,
        0.0467793345451355,
        0.09113096445798874,
        0.9973750114440918
      ],
      "min": [
        -0.009118457324802876,
        0.041046056896448135,
        0.05898416042327881,
        0.9947262406349182
      ],
      "type": "VEC4"
    },
    {
      "bufferView": 6,
      "byteOffset": 380,
      "componentType": 5126,
      "count": 88,
      "max": [
        8.0
      ],
      "min": [
        0.0
      ],
      "type": "SCALAR"
    },
    {
      "bufferView": 7,
      "componentType": 5126,
      "count": 88,
      "max": [
        1.0000001192092896,
        1.000000238418579,
        1.0000001192092896
      ],
      "min": [
        0.9999996423721313,
        0.9999997615814209,
        0.9999998807907104
      ],
      "type": "VEC3"
    },
    {
      "bufferView": 6,
      "byteOffset": 732,
      "componentType": 5126,
      "count": 92,
      "max": [
        8.0
      ],
      "min": [
        0.0
      ],
      "type": "SCALAR"
    },
    {
      "bufferView": 7,
      "byteOffset": 1056,
      "componentType": 5126,
      "count": 92,
      "max": [
        0.0010894464794546366,
        0.6953140497207642,
        -4.240370981278829e-05
      ],
      "min": [
        0.0010893621947616339,
        0.6953130960464478,
        -4.246943353791721e-05
      ],
      "type": "VEC3"
    },
    {
      "bufferView": 6,
      "byteOffset": 1100,
      "componentType": 5126,
      "count": 241,
      "max": [
        8.0
      ],
      "min": [
        0.0
      ],
      "type": "SCALAR"
    },
    {
      "bufferView": 8,
      "byteOffset": 1520,
      "componentType": 5126,
      "count": 241,
      "max": [
        0.6299671530723572,
        0.02247442491352558,
        0.029632780700922012,
        0.9992915391921997
      ],
      "min": [
        0.029267774894833565,
        -0.037608128041028976,
        -0.04480727016925812,
        0.7748841047286987
      ],
      "type": "VEC4"
    },
    {
      "bufferView": 6,
      "byteOffset": 2064,
      "componentType": 5126,
      "count": 241,
      "max": [
        8.0
      ],
      "min": [
        0.0
      ],
      "type": "SCALAR"
    },
    {
      "bufferView": 7,
      "byteOffset": 2160,
      "componentType": 5126,
      "count": 241,
      "max": [
        1.000000238418579,
        1.0000003576278687,
        1.000000238418579
      ],
      "min": [
        0.999999463558197,
        0.9999996423721313,
        0.999999463558197
      ],
      "type": "VEC3"
    },
    {
      "bufferView": 6,
      "byteOffset": 3028,
      "componentType": 5126,
      "count": 241,
      "max": [
        8.0
      ],
      "min": [
        0.0
      ],
      "type": "SCALAR"
    },
    {
      "bufferView": 7,
      "byteOffset": 5052,
      "componentType": 5126,
      "count": 241,
      "max": [
        4.921654195300107e-08,
        0.43980029225349426,
        1.5136184572384082e-07
      ],
      "min": [
        -2.94837292358352e-08,
        0.43979981541633606,
        -1.3924729103109712e-07
      ],
      "type": "VEC3"
    },
    {
      "bufferView": 6,
      "byteOffset": 3992,
      "componentType": 5126,
      "count": 241,
      "max": [
        8.0
      ],
      "min": [
        0.0
      ],
      "type": "SCALAR"
    },
    {
      "bufferView": 8,
      "byteOffset": 5376,
      "componentType": 5126,
      "count": 241,
      "max": [
        0.8123672008514404,
        0.02422325126826763,
        0.015327006578445435,
        0.9999996423721313
      ],
      "min": [
        -0.0008615310653112829,
        -0.015832290053367615,
        -0.004487275145947933,
        0.5831419825553894
      ],
      "type": "VEC4"
    },
    {
      "bufferView": 6,
      "byteOffset": 4956,
      "componentType": 5126,
      "count": 241,
      "max": [
        8.0
      ],
      "min": [
        0.0
      ],
      "type": "SCALAR"
    },
    {
      "bufferView": 7,
      "byteOffset": 7944,
      "componentType": 5126,
      "count": 241,
      "max": [
        1.000000238418579,
        1.000000238418579,
        1.0000004768371582
      ],
      "min": [
        0.9999995827674866,
        0.9999996423721313,
        0.9999996423721313
      ],
      "type": "VEC3"
    },
    {
      "bufferView": 6,
      "byteOffset": 5920,
      "componentType": 5126,
      "count": 241,
      "max": [
        8.0
      ],
      "min": [
        0.0
      ],
      "type": "SCALAR"
    },
    {
      "bufferView": 7,
      "byteOffset": 10836,
      "componentType": 5126,
      "count": 241,
      "max": [
        4.181758228583021e-08,
        0.2766771614551544,
        1.561210893896714e-07
      ],
      "min": [
        -6.07704535582343e-08,
        0.2766764461994171,
        -2.0935679856393108e-07
      ],
      "type": "VEC3"
    },
    {
      "bufferView": 6,
      "byteOffset": 6884,
      "componentType": 5126,
      "count": 241,
      "max": [
        8.0
      ],
      "min": [
        0.0
      ],
      "type": "SCALAR"
    },
    {
      "bufferView": 8,
      "byteOffset": 9232,
      "componentType": 5126,
      "count": 241,
      "max": [
        0.5130060315132141,
        0.022182485088706017,
        0.09013493359088898,
        0.9999997019767761
      ],
      "min": [
        -0.0004368562949821353,
        -0.017882786691188812,
        -0.02686372771859169,
        0.8581945896148682
      ],
      "type": "VEC4"
    },
    {
      "bufferView": 6,
      "byteOffset": 7848,
      "componentType": 5126,
      "count": 240,
      "max": [
        8.0
      ],
      "min": [
        0.0
      ],
      "type": "SCALAR"
    },
    {
      "bufferView": 7,
      "byteOffset": 13728,
      "componentType": 5126,
      "count": 240,
      "max": [
        1.000000238418579,
        1.000000238418579,
        1.0
      ],
      "min": [
        0.999999463558197,
        0.999999463558197,
        0.9999994039535522
      ],
      "type": "VEC3"
    },
    {
      "bufferView": 6,
      "byteOffset": 8808,
      "componentType": 5126,
      "count": 93,
      "max": [
        8.0
      ],
      "min": [
        0.0
      ],
      "type": "SCALAR"
    },
    {
      "bufferView": 7,
      "byteOffset": 16608,
      "componentType": 5126,
      "count": 93,
      "max": [
        -0.09600163251161575,
        0.06531800329685211,
        0.0035972408950328827
      ],
      "min": [
        -0.09600192308425903,
        0.06531761586666107,
        0.0035971023607999086
      ],
      "type": "VEC3"
    },
    {
      "bufferView": 6,
      "byteOffset": 9180,
      "componentType": 5126,
      "count": 241,
      "max": [
        8.0
      ],
      "min": [
        0.0
      ],
      "type": "SCALAR"
    },
    {
      "bufferView": 8,
      "byteOffset": 13088,
      "componentType": 5126,
      "count": 241,
      "max": [
        0.12173891812562943,
        0.4831598401069641,
        0.3831647038459778,
        0.9003106355667114
      ],
      "min": [
        -0.0892522856593132,
        0.2978561520576477,
        0.2781049609184265,
        0.7958196401596069
      ],
      "type": "VEC4"
    },
    {
      "bufferView": 6,
      "byteOffset": 10144,
      "componentType": 5126,
      "count": 240,
      "max": [
        8.0
      ],
      "min": [
        0.0
      ],
      "type": "SCALAR"
    },
    {
      "bufferView": 7,
      "byteOffset": 17724,
      "componentType": 5126,
      "count": 240,
      "max": [
        1.0000003576278687,
        1.0000003576278687,
        1.0000003576278687
      ],
      "min": [
        0.9999997019767761,
        0.9999997019767761,
        0.9999997019767761
      ],
      "type": "VEC3"
    },
    {
      "bufferView": 6,
      "byteOffset": 11104,
      "componentType": 5126,
      "count": 241,
      "max": [
        8.0
      ],
      "min": [
        0.0
      ],
      "type": "SCALAR"
    },
    {
      "bufferView": 7,
      "byteOffset": 20604,
      "componentType": 5126,
      "count": 241,
      "max": [
        1.2503802793162322e-07,
        0.4892919063568115,
        7.007095348399162e-08
      ],
      "min": [
        -1.6698072613507975e-07,
        0.48929154872894287,
        -8.909364623832516e-08
      ],
      "type": "VEC3"
    },
    {
      "bufferView": 6,
      "byteOffset": 12068,
      "componentType": 5126,
      "count": 241,
      "max": [
        8.0
      ],
      "min": [
        0.0
      ],
      "type": "SCALAR"
    },
    {
      "bufferView": 8,
      "byteOffset": 16944,
      "componentType": 5126,
      "count": 241,
      "max": [
        0.44113704562187195,
        0.035065311938524246,
        0.12047718465328217,
        0.9973093271255493
      ],
      "min": [
        0.003978740889579058,
        -0.07840269058942795,
        -0.01492522843182087,
        0.8923186659812927
      ],
      "type": "VEC4"
    },
    {
      "bufferView": 6,
      "byteOffset": 13032,
      "componentType": 5126,
      "count": 240,
      "max": [
        8.0
      ],
      "min": [
        0.0
      ],
      "type": "SCALAR"
    },
    {
      "bufferView": 7,
      "byteOffset": 23496,
      "componentType": 5126,
      "count": 240,
      "max": [
        1.0000003576278687,
        1.0000003576278687,
        1.0000001192092896
      ],
      "min": [
        0.9999997615814209,
        0.9999997615814209,
        0.9999997019767761
      ],
      "type": "VEC3"
    },
    {
      "bufferView": 6,
      "byteOffset": 13992,
      "componentType": 5126,
      "count": 241,
      "max": [
        8.0
      ],
      "min": [
        0.0
      ],
      "type": "SCALAR"
    },
    {
      "bufferView": 7,
      "byteOffset": 26376,
      "componentType": 5126,
      "count": 241,
      "max": [
        1.6832724725190928e-07,
        0.30266523361206055,
        6.744249958501314e-08
      ],
      "min": [
        -1.3621865946333855e-07,
        0.30266475677490234,
        -1.2574470531490078e-07
      ],
      "type": "VEC3"
    },
    {
      "bufferView": 6,
      "byteOffset": 14956,
      "componentType": 5126,
      "count": 241,
      "max": [
        8.0
      ],
      "min": [
        0.0
      ],
      "type": "SCALAR"
    },
    {
      "bufferView": 8,
      "byteOffset": 20800,
      "componentType": 5126,
      "count": 241,
      "max": [
        0.4817650020122528,
        0.0923808217048645,
        0.10626082122325897,
        0.9999586343765259
      ],
      "min": [
        -0.0025013613048940897,
        -0.009550504386425018,
        -0.0013905708910897374,
        0.8714163303375244
      ],
      "type": "VEC4"
    },
    {
      "bufferView": 6,
      "byteOffset": 15920,
      "componentType": 5126,
      "count": 240,
      "max": [
        8.0
      ],
      "min": [
        0.0
      ],
      "type": "SCALAR"
    },
    {
      "bufferView": 7,
      "byteOffset": 29268,
      "componentType": 5126,
      "count": 240,
      "max": [
        1.000000238418579,
        1.0000003576278687,
        1.000000238418579
      ],
      "min": [
        0.9999996423721313,
        0.9999997019767761,
        0.9999997019767761
      ],
      "type": "VEC3"
    },
    {
      "bufferView": 6,
      "byteOffset": 16880,
      "componentType": 5126,
      "count": 63,
      "max": [
        8.0
      ],
      "min": [
        0.0
      ],
      "type": "SCALAR"
    },
    {
      "bufferView": 8,
      "byteOffset": 24656,
      "componentType": 5126,
      "count": 63,
      "max": [
        -0.004404674284160137,
        0.01860557310283184,
        -0.00435324851423502,
        0.9998049139976501
      ],
      "min": [
        -0.01609531231224537,
        0.017754409462213516,
        -0.004961893428117037,
        0.9997033476829529
      ],
      "type": "VEC4"
    },
    {
      "bufferView": 6,
      "byteOffset": 17132,
      "componentType": 5126,
      "count": 63,
      "max": [
        8.0
      ],
      "min": [
        0.0
      ],
      "type": "SCALAR"
    },
    {
      "bufferView": 7,
      "byteOffset": 32148,
      "componentType": 5126,
      "count": 63,
      "max": [
        1.0000001192092896,
        1.000000238418579,
        0.9999999403953552
      ],
      "min": [
        0.9999998211860657,
        0.9999999403953552,
        0.9999997019767761
      ],
      "type": "VEC3"
    },
    {
      "bufferView": 6,
      "byteOffset": 17384,
      "componentType": 5126,
      "count": 63,
      "max": [
        8.0
      ],
      "min": [
        0.0
      ],
      "type": "SCALAR"
    },
    {
      "bufferView": 7,
      "byteOffset": 32904,
      "componentType": 5126,
      "count": 63,
      "max": [
        -0.004578072112053633,
        0.6767249703407288,
        0.0007523226086050272
      ],
      "min": [
        -0.004578113090246916,
        0.6767241358757019,
        0.0007521985680796206
      ],
      "type": "VEC3"
    },
    {
      "bufferView": 6,
      "byteOffset": 17636,
      "componentType": 5126,
      "count": 241,
      "max": [
        8.0
      ],
      "min": [
        0.0
      ],
      "type": "SCALAR"
    },
    {
      "bufferView": 8,
      "byteOffset": 25664,
      "componentType": 5126,
      "count": 241,
      "max": [
        0.5682513117790222,
        0.03782215341925621,
        0.06436209380626678,
        0.9984833598136902
      ],
      "min": [
        0.03151249513030052,
        0.003597086761146784,
        0.0021877035032957792,
        0.8212323784828186
      ],
      "type": "VEC4"
    },
    {
      "bufferView": 6,
      "byteOffset": 18600,
      "componentType": 5126,
      "count": 239,
      "max": [
        8.0
      ],
      "min": [
        0.0
      ],
      "type": "SCALAR"
    },
    {
      "bufferView": 7,
      "byteOffset": 33660,
      "componentType": 5126,
      "count": 239,
      "max": [
        1.0000003576278687,
        1.000000238418579,
        1.000000238418579
      ],
      "min": [
        0.9999995231628418,
        0.9999996423721313,
        0.9999995827674866
      ],
      "type": "VEC3"
    },
    {
      "bufferView": 6,
      "byteOffset": 19556,
      "componentType": 5126,
      "count": 239,
      "max": [
        8.0
      ],
      "min": [
        0.0
      ],
      "type": "SCALAR"
    },
    {
      "bufferView": 7,
      "byteOffset": 36528,
      "componentType": 5126,
      "count": 239,
      "max": [
        1.3386039832141705e-08,
        0.497671514749527,
        4.893229998970128e-08
      ],
      "min": [
        -2.3477213062506053e-08,
        0.4976709187030792,
        -3.086285005338141e-07
      ],
      "type": "VEC3"
    },
    {
      "bufferView": 6,
      "byteOffset": 20512,
      "componentType": 5126,
      "count": 241,
      "max": [
        8.0
      ],
      "min": [
        0.0
      ],
      "type": "SCALAR"
    },
    {
      "bufferView": 8,
      "byteOffset": 29520,
      "componentType": 5126,
      "count": 241,
      "max": [
        0.8795115351676941,
        0.017500780522823334,
        0.010059040039777756,
        0.9998287558555603
      ],
      "min": [
        0.003359047695994377,
        -0.06329187005758286,
        -0.03828198462724686,
        0.4746008515357971
      ],
      "type": "VEC4"
    },
    {
      "bufferView": 6,
      "byteOffset": 21476,
      "componentType": 5126,
      "count": 241,
      "max": [
        8.0
      ],
      "min": [
        0.0
      ],
      "type": "SCALAR"
    },
    {
      "bufferView": 7,
      "byteOffset": 39396,
      "componentType": 5126,
      "count": 241,
      "max": [
        1.000000238418579,
        1.0000004768371582,
        1.0000004768371582
      ],
      "min": [
        0.999999463558197,
        0.9999995231628418,
        0.9999995827674866
      ],
      "type": "VEC3"
    },
    {
      "bufferView": 6,
      "byteOffset": 22440,
      "componentType": 5126,
      "count": 241,
      "max": [
        8.0
      ],
      "min": [
        0.0
      ],
      "type": "SCALAR"
    },
    {
      "bufferView": 7,
      "byteOffset": 42288,
      "componentType": 5126,
      "count": 241,
      "max": [
        1.320102871460449e-08,
        0.34141355752944946,
        1.1250862286260599e-07
      ],
      "min": [
        -3.211528110114159e-08,
        0.34141284227371216,
        -1.6872049002358835e-07
      ],
      "type": "VEC3"
    },
    {
      "bufferView": 6,
      "byteOffset": 23404,
      "componentType": 5126,
      "count": 241,
      "max": [
        8.0
      ],
      "min": [
        0.0
      ],
      "type": "SCALAR"
    },
    {
      "bufferView": 8,
      "byteOffset": 33376,
      "componentType": 5126,
      "count": 241,
      "max": [
        0.6876835823059082,
        0.02599361538887024,
        0.015831908211112022,
        0.9980316162109375
      ],
      "min": [
        0.06247410550713539,
        -0.03456910327076912,
        -0.016418853774666786,
        0.7250187397003174
      ],
      "type": "VEC4"
    },
    {
      "bufferView": 6,
      "byteOffset": 24368,
      "componentType": 5126,
      "count": 241,
      "max": [
        8.0
      ],
      "min": [
        0.0
      ],
      "type": "SCALAR"
    },
    {
      "bufferView": 7,
      "byteOffset": 45180,
      "componentType": 5126,
      "count": 241,
      "max": [
        1.000000238418579,
        1.0000003576278687,
        1.0000003576278687
      ],
      "min": [
        0.9999995231628418,
        0.9999997615814209,
        0.9999997019767761
      ],
      "type": "VEC3"
    },
    {
      "bufferView": 6,
      "byteOffset": 25332,
      "componentType": 5126,
      "count": 110,
      "max": [
        8.0
      ],
      "min": [
        0.0
      ],
      "type": "SCALAR"
    },
    {
      "bufferView": 8,
      "byteOffset": 37232,
      "componentType": 5126,
      "count": 110,
      "max": [
        0.03440500423312187,
        -0.05495981499552727,
        -0.0524604469537735,
        0.9966999292373657
      ],
      "min": [
        0.013719283044338226,
        -0.13595463335514069,
        -0.05822398513555527,
        0.9887267351150513
      ],
      "type": "VEC4"
    },
    {
      "bufferView": 6,
      "byteOffset": 25772,
      "componentType": 5126,
      "count": 110,
      "max": [
        8.0
      ],
      "min": [
        0.0
      ],
      "type": "SCALAR"
    },
    {
      "bufferView": 7,
      "byteOffset": 48072,
      "componentType": 5126,
      "count": 110,
      "max": [
        0.9999999403953552,
        0.9999999403953552,
        1.000000238418579
      ],
      "min": [
        0.9999995827674866,
        0.9999996423721313,
        0.9999997019767761
      ],
      "type": "VEC3"
    },
    {
      "bufferView": 6,
      "byteOffset": 26212,
      "componentType": 5126,
      "count": 110,
      "max": [
        8.0
      ],
      "min": [
        0.0
      ],
      "type": "SCALAR"
    },
    {
      "bufferView": 7,
      "byteOffset": 49392,
      "componentType": 5126,
      "count": 110,
      "max": [
        0.009972856380045414,
        0.670362651348114,
        -0.00017512324848212302
      ],
      "min": [
        0.009972749277949333,
        0.6703616976737976,
        -0.00017524362192489207
      ],
      "type": "VEC3"
    },
    {
      "bufferView": 6,
      "byteOffset": 26652,
      "componentType": 5126,
      "count": 241,
      "max": [
        8.0
      ],
      "min": [
        0.0
      ],
      "type": "SCALAR"
    },
    {
      "bufferView": 8,
      "byteOffset": 38992,
      "componentType": 5126,
      "count": 241,
      "max": [
        0.5666114687919617,
        0.1498124599456787,
        0.05076135694980621,
        0.9951027035713196
      ],
      "min": [
        0.008958268910646439,
        0.0733390599489212,
        -0.17070889472961426,
        0.814035177230835
      ],
      "type": "VEC4"
    },
    {
      "bufferView": 6,
      "byteOffset": 27616,
      "componentType": 5126,
      "count": 241,
      "max": [
        8.0
      ],
      "min": [
        0.0
      ],
      "type": "SCALAR"
    },
    {
      "bufferView": 7,
      "byteOffset": 50712,
      "componentType": 5126,
      "count": 241,
      "max": [
        1.0000003576278687,
        1.0000003576278687,
        1.000000238418579
      ],
      "min": [
        0.9999997615814209,
        0.9999997019767761,
        0.9999996423721313
      ],
      "type": "VEC3"
    },
    {
      "bufferView": 6,
      "byteOffset": 28580,
      "componentType": 5126,
      "count": 241,
      "max": [
        8.0
      ],
      "min": [
        0.0
      ],
      "type": "SCALAR"
    },
    {
      "bufferView": 7,
      "byteOffset": 53604,
      "componentType": 5126,
      "count": 241,
      "max": [
        6.423942267019811e-08,
        0.43555814027786255,
        1.0671150363350534e-07
      ],
      "min": [
        -7.136019064546417e-08,
        0.43555766344070435,
        -1.4343400778216164e-07
      ],
      "type": "VEC3"
    },
    {
      "bufferView": 6,
      "byteOffset": 29544,
      "componentType": 5126,
      "count": 241,
      "max": [
        8.0
      ],
      "min": [
        0.0
      ],
      "type": "SCALAR"
    },
    {
      "bufferView": 8,
      "byteOffset": 42848,
      "componentType": 5126,
      "count": 241,
      "max": [
        0.8209577202796936,
        0.14805437624454498,
        0.04541243612766266,
        0.9992712736129761
      ],
      "min": [
        -0.017226476222276688,
        -0.005683287512511015,
        -0.05123366415500641,
        0.5701162219047546
      ],
      "type": "VEC4"
    },
    {
      "bufferView": 6,
      "byteOffset": 30508,
      "componentType": 5126,
      "count": 241,
      "max": [
        8.0
      ],
      "min": [
        0.0
      ],
      "type": "SCALAR"
    },
    {
      "bufferView": 7,
      "byteOffset": 56496,
      "componentType": 5126,
      "count": 241,
      "max": [
        1.0000003576278687,
        1.0000004768371582,
        1.0000003576278687
      ],
      "min": [
        0.9999997019767761,
        0.9999997615814209,
        0.9999996423721313
      ],
      "type": "VEC3"
    },
    {
      "bufferView": 6,
      "byteOffset": 31472,
      "componentType": 5126,
      "count": 241,
      "max": [
        8.0
      ],
      "min": [
        0.0
      ],
      "type": "SCALAR"
    },
    {
      "bufferView": 7,
      "byteOffset": 59388,
      "componentType": 5126,
      "count": 241,
      "max": [
        6.303274346919352e-08,
        0.2653306722640991,
        2.3145614136410586e-07
      ],
      "min": [
        -6.295253740518092e-08,
        0.26533013582229614,
        -1.4363283185048203e-07
      ],
      "type": "VEC3"
    },
    {
      "bufferView": 6,
      "byteOffset": 32436,
      "componentType": 5126,
      "count": 241,
      "max": [
        8.0
      ],
      "min": [
        0.0
      ],
      "type": "SCALAR"
    },
    {
      "bufferView": 8,
      "byteOffset": 46704,
      "componentType": 5126,
      "count": 241,
      "max": [
        0.7612412571907043,
        0.07881283015012741,
        0.09101393073797226,
        0.978188693523407
      ],
      "min": [
        0.20363052189350128,
        -0.11148278415203094,
        -0.07394126057624817,
        0.6426363587379456
      ],
      "type": "VEC4"
    },
    {
      "bufferView": 6,
      "byteOffset": 33400,
      "componentType": 5126,
      "count": 241,
      "max": [
        8.0
      ],
      "min": [
        0.0
      ],
      "type": "SCALAR"
    },
    {
      "bufferView": 7,
      "byteOffset": 62280,
      "componentType": 5126,
      "count": 241,
      "max": [
        1.0000003576278687,
        1.0000003576278687,
        1.000000238418579
      ],
      "min": [
        0.9999997019767761,
        0.9999996423721313,
        0.9999997615814209
      ],
      "type": "VEC3"
    },
    {
      "bufferView": 6,
      "byteOffset": 34364,
      "componentType": 5126,
      "count": 79,
      "max": [
        8.0
      ],
      "min": [
        0.0
      ],
      "type": "SCALAR"
    },
    {
      "bufferView": 8,
      "byteOffset": 50560,
      "componentType": 5126,
      "count": 79,
      "max": [
        -0.009492674842476845,
        -0.1395781934261322,
        -0.16246771812438965,
        0.9761569499969482
      ],
      "min": [
        -0.020135095342993736,
        -0.18412522971630096,
        -0.16567112505435944,
        0.9692940711975098
      ],
      "type": "VEC4"
    },
    {
      "bufferView": 6,
      "byteOffset": 34680,
      "componentType": 5126,
      "count": 79,
      "max": [
        8.0
      ],
      "min": [
        0.0
      ],
      "type": "SCALAR"
    },
    {
      "bufferView": 7,
      "byteOffset": 65172,
      "componentType": 5126,
      "count": 79,
      "max": [
        0.9999999403953552,
        1.0,
        1.0
      ],
      "min": [
        0.9999996423721313,
        0.9999996423721313,
        0.9999996423721313
      ],
      "type": "VEC3"
    },
    {
      "bufferView": 6,
      "byteOffset": 34996,
      "componentType": 5126,
      "count": 79,
      "max": [
        8.0
      ],
      "min": [
        0.0
      ],
      "type": "SCALAR"
    },
    {
      "bufferView": 7,
      "byteOffset": 66120,
      "componentType": 5126,
      "count": 79,
      "max": [
        0.0009806860471144319,
        0.6376556158065796,
        0.0009327189181931317
      ],
      "min": [
        0.0009804994333535433,
        0.6376549005508423,
        0.0009326637373305857
      ],
      "type": "VEC3"
    },
    {
      "bufferView": 6,
      "byteOffset": 35312,
      "componentType": 5126,
      "count": 241,
      "max": [
        8.0
      ],
      "min": [
        0.0
      ],
      "type": "SCALAR"
    },
    {
      "bufferView": 8,
      "byteOffset": 51824,
      "componentType": 5126,
      "count": 241,
      "max": [
        0.5832785367965698,
        0.23012951016426086,
        0.11206600815057755,
        0.9937596321105957
      ],
      "min": [
        0.01200546883046627,
        0.07245614379644394,
        -0.06135815009474754,
        0.7784556150436401
      ],
      "type": "VEC4"
    },
    {
      "bufferView": 6,
      "byteOffset": 36276,
      "componentType": 5126,
      "count": 241,
      "max": [
        8.0
      ],
      "min": [
        0.0
      ],
      "type": "SCALAR"
    },
    {
      "bufferView": 7,
      "byteOffset": 67068,
      "componentType": 5126,
      "count": 241,
      "max": [
        1.000000238418579,
        1.0000003576278687,
        1.0000005960464478
      ],
      "min": [
        0.9999995827674866,
        0.9999997615814209,
        0.9999998211860657
      ],
      "type": "VEC3"
    },
    {
      "bufferView": 6,
      "byteOffset": 37240,
      "componentType": 5126,
      "count": 240,
      "max": [
        8.0
      ],
      "min": [
        0.0
      ],
      "type": "SCALAR"
    },
    {
      "bufferView": 7,
      "byteOffset": 69960,
      "componentType": 5126,
      "count": 240,
      "max": [
        7.914702138123175e-08,
        0.3737221658229828,
        1.6810811587220087e-07
      ],
      "min": [
        -1.1158959978274652e-07,
        0.3737216889858246,
        -2.7663031687552575e-07
      ],
      "type": "VEC3"
    },
    {
      "bufferView": 6,
      "byteOffset": 38200,
      "componentType": 5126,
      "count": 241,
      "max": [
        8.0
      ],
      "min": [
        0.0
      ],
      "type": "SCALAR"
    },
    {
      "bufferView": 8,
      "byteOffset": 55680,
      "componentType": 5126,
      "count": 241,
      "max": [
        0.736422061920166,
        0.06681155413389206,
        0.02487923577427864,
        0.9977884888648987
      ],
      "min": [
        -0.00031900987960398197,
        0.0004198754031676799,
        -0.03157674893736839,
        0.6761112809181213
      ],
      "type": "VEC4"
    },
    {
      "bufferView": 6,
      "byteOffset": 39164,
      "componentType": 5126,
      "count": 240,
      "max": [
        8.0
      ],
      "min": [
        0.0
      ],
      "type": "SCALAR"
    },
    {
      "bufferView": 7,
      "byteOffset": 72840,
      "componentType": 5126,
      "count": 240,
      "max": [
        1.0000003576278687,
        1.0000004768371582,
        1.0000004768371582
      ],
      "min": [
        0.9999997615814209,
        0.9999997019767761,
        0.9999996423721313
      ],
      "type": "VEC3"
    },
    {
      "bufferView": 6,
      "byteOffset": 40124,
      "componentType": 5126,
      "count": 241,
      "max": [
        8.0
      ],
      "min": [
        0.0
      ],
      "type": "SCALAR"
    },
    {
      "bufferView": 7,
      "byteOffset": 75720,
      "componentType": 5126,
      "count": 241,
      "max": [
        9.381189158830239e-08,
        0.17953668534755707,
        2.5742491516211885e-07
      ],
      "min": [
        -9.137836798345234e-08,
        0.17953622341156006,
        -1.3069512760921498e-07
      ],
      "type": "VEC3"
    },
    {
      "bufferView": 6,
      "byteOffset": 41088,
      "componentType": 5126,
      "count": 241,
      "max": [
        8.0
      ],
      "min": [
        0.0
      ],
      "type": "SCALAR"
    },
    {
      "bufferView": 8,
      "byteOffset": 59536,
      "componentType": 5126,
      "count": 241,
      "max": [
        0.7960544228553772,
        0.07095038890838623,
        0.014810341410338879,
        0.9994129538536072
      ],
      "min": [
        0.00038199531263671815,
        -0.06029447540640831,
        -0.043141961097717285,
        0.6036451458930969
      ],
      "type": "VEC4"
    },
    {
      "bufferView": 6,
      "byteOffset": 42052,
      "componentType": 5126,
      "count": 241,
      "max": [
        8.0
      ],
      "min": [
        0.0
      ],
      "type": "SCALAR"
    },
    {
      "bufferView": 7,
      "byteOffset": 78612,
      "componentType": 5126,
      "count": 241,
      "max": [
        1.0000003576278687,
        1.000000238418579,
        1.0000003576278687
      ],
      "min": [
        0.9999995827674866,
        0.999999463558197,
        0.9999997019767761
      ],
      "type": "VEC3"
    }
  ],
  "animations": [
    {
      "channels": [
        {
          "sampler": 0,
          "target": {
            "node": 9,
            "path": "rotation"
          }
        },
        {
          "sampler": 1,
          "target": {
            "node": 9,
            "path": "scale"
          }
        },
        {
          "sampler": 2,
          "target": {
            "node": 10,
            "path": "translation"
          }
        },
        {
          "sampler": 3,
          "target": {
            "node": 10,
            "path": "rotation"
          }
        },
        {
          "sampler": 4,
          "target": {
            "node": 10,
            "path": "scale"
          }
        },
        {
          "sampler": 5,
          "target": {
            "node": 11,
            "path": "translation"
          }
        },
        {
          "sampler": 6,
          "target": {
            "node": 11,
            "path": "rotation"
          }
        },
        {
          "sampler": 7,
          "target": {
            "node": 11,
            "path": "scale"
          }
        },
        {
          "sampler": 8,
          "target": {
            "node": 12,
            "path": "translation"
          }
        },
        {
          "sampler": 9,
          "target": {
            "node": 12,
            "path": "rotation"
          }
        },
        {
          "sampler": 10,
          "target": {
            "node": 12,
            "path": "scale"
          }
        },
        {
          "sampler": 11,
          "target": {
            "node": 13,
            "path": "translation"
          }
        },
        {
          "sampler": 12,
          "target": {
            "node": 13,
            "path": "rotation"
          }
        },
        {
          "sampler": 13,
          "target": {
            "node": 13,
            "path": "scale"
          }
        },
        {
          "sampler": 14,
          "target": {
            "node": 14,
            "path": "translation"
          }
        },
        {
          "sampler": 15,
          "target": {
            "node": 14,
            "path": "rotation"
          }
        },
        {
          "sampler": 16,
          "target": {
            "node": 14,
            "path": "scale"
          }
        },
        {
          "sampler": 17,
          "target": {
            "node": 15,
            "path": "translation"
          }
        },
        {
          "sampler": 18,
          "target": {
            "node": 15,
            "path": "rotation"
          }
        },
        {
          "sampler": 19,
          "target": {
            "node": 15,
            "path": "scale"
          }
        },
        {
          "sampler": 20,
          "target": {
            "node": 16,
            "path": "rotation"
          }
        },
        {
          "sampler": 21,
          "target": {
            "node": 16,
            "path": "scale"
          }
        },
        {
          "sampler": 22,
          "target": {
            "node": 17,
            "path": "translation"
          }
        },
        {
          "sampler": 23,
          "target": {
            "node": 17,
            "path": "rotation"
          }
        },
        {
          "sampler": 24,
          "target": {
            "node": 17,
            "path": "scale"
          }
        },
        {
          "sampler": 25,
          "target": {
            "node": 18,
            "path": "translation"
          }
        },
        {
          "sampler": 26,
          "target": {
            "node": 18,
            "path": "rotation"
          }
        },
        {
          "sampler": 27,
          "target": {
            "node": 18,
            "path": "scale"
          }
        },
        {
          "sampler": 28,
          "target": {
            "node": 19,
            "path": "translation"
          }
        },
        {
          "sampler": 29,
          "target": {
            "node": 19,
            "path": "rotation"
          }
        },
        {
          "sampler": 30,
          "target": {
            "node": 19,
            "path": "scale"
          }
        },
        {
          "sampler": 31,
          "target": {
            "node": 20,
            "path": "rotation"
          }
        },
        {
          "sampler": 32,
          "target": {
            "node": 20,
            "path": "scale"
          }
        },
        {
          "sampler": 33,
          "target": {
            "node": 21,
            "path": "translation"
          }
        },
        {
          "sampler": 34,
          "target": {
            "node": 21,
            "path": "rotation"
          }
        },
        {
          "sampler": 35,
          "target": {
            "node": 21,
            "path": "scale"
          }
        },
        {
          "sampler": 36,
          "target": {
            "node": 22,
            "path": "translation"
          }
        },
        {
          "sampler": 37,
          "target": {
            "node": 22,
            "path": "rotation"
          }
        },
        {
          "sampler": 38,
          "target": {
            "node": 22,
            "path": "scale"
          }
        },
        {
          "sampler": 39,
          "target": {
            "node": 23,
            "path": "translation"
          }
        },
        {
          "sampler": 40,
          "target": {
            "node": 23,
            "path": "rotation"
          }
        },
        {
          "sampler": 41,
          "target": {
            "node": 23,
            "path": "scale"
          }
        },
        {
          "sampler": 42,
          "target": {
            "node": 24,
            "path": "rotation"
          }
        },
        {
          "sampler": 43,
          "target": {
            "node": 24,
            "path": "scale"
          }
        },
        {
          "sampler": 44,
          "target": {
            "node": 25,
            "path": "translation"
          }
        },
        {
          "sampler": 45,
          "target": {
            "node": 25,
            "path": "rotation"
          }
        },
        {
          "sampler": 46,
          "target": {
            "node": 25,
            "path": "scale"
          }
        },
        {
          "sampler": 47,
          "target": {
            "node": 26,
            "path": "translation"
          }
        },
        {
          "sampler": 48,
          "target": {
            "node": 26,
            "path": "rotation"
          }
        },
        {
          "sampler": 49,
          "target": {
            "node": 26,
            "path": "scale"
          }
        },
        {
          "sampler": 50,
          "target": {
            "node": 27,
            "path": "translation"
          }
        },
        {
          "sampler": 51,
          "target": {
            "node": 27,
            "path": "rotation"
          }
        },
        {
          "sampler": 52,
          "target": {
            "node": 27,
            "path": "scale"
          }
        }
      ],
      "name": "Action",
      "samplers": [
        {
          "input": 7,
          "interpolation": "LINEAR",
          "output": 8
        },
        {
          "input": 9,
          "interpolation": "LINEAR",
          "output": 10
        },
        {
          "input": 11,
          "interpolation": "LINEAR",
          "output": 12
        },
        {
          "input": 13,
          "interpolation": "LINEAR",
          "output": 14
        },
        {
          "input": 15,
          "interpolation": "LINEAR",
          "output": 16
        },
        {
          "input": 17,
          "interpolation": "LINEAR",
          "output": 18
        },
        {
          "input": 19,
          "interpolation": "LINEAR",
          "output": 20
        },
        {
          "input": 21,
          "interpolation": "LINEAR",
          "output": 22
        },
        {
          "input": 23,
          "interpolation": "LINEAR",
          "output": 24
        },
        {
          "input": 25,
          "interpolation": "LINEAR",
          "output": 26
        },
        {
          "input": 27,
          "interpolation": "LINEAR",
          "output": 28
        },
        {
          "input": 29,
          "interpolation": "LINEAR",
          "output": 30
        },
        {
          "input": 31,
          "interpolation": "LINEAR",
          "output": 32
        },
        {
          "input": 33,
          "interpolation": "LINEAR",
          "output": 34
        },
        {
          "input": 35,
          "interpolation": "LINEAR",
          "output": 36
        },
        {
          "input": 37,
          "interpolation": "LINEAR",
          "output": 38
        },
        {
          "input": 39,
          "interpolation": "LINEAR",
          "output": 40
        },
        {
          "input": 41,
          "interpolation": "LINEAR",
          "output": 42
        },
        {
          "input": 43,
          "interpolation": "LINEAR",
          "output": 44
        },
        {
          "input": 45,
          "interpolation": "LINEAR",
          "output": 46
        },
        {
          "input": 47,
          "interpolation": "LINEAR",
          "output": 48
        },
        {
          "input": 49,
          "interpolation": "LINEAR",
          "output": 50
        },
        {
          "input": 51,
          "interpolation": "LINEAR",
          "output": 52
        },
        {
          "input": 53,
          "interpolation": "LINEAR",
          "output": 54
        },
        {
          "input": 55,
          "interpolation": "LINEAR",
          "output": 56
        },
        {
          "input": 57,
          "interpolation": "LINEAR",
          "output": 58
        },
        {
          "input": 59,
          "interpolation": "LINEAR",
          "output": 60
        },
        {
          "input": 61,
          "interpolation": "LINEAR",
          "output": 62
        },
        {
          "input": 63,
          "interpolation": "LINEAR",
          "output": 64
        },
        {
          "input": 65,
          "interpolation": "LINEAR",
          "output": 66
        },
        {
          "input": 67,
          "interpolation": "LINEAR",
          "output": 68
        },
        {
          "input": 69,
          "interpolation": "LINEAR",
          "output": 70
        },
        {
          "input": 71,
          "interpolation": "LINEAR",
          "output": 72
        },
        {
          "input": 73,
          "interpolation": "LINEAR",
          "output": 74
        },
        {
          "input": 75,
          "interpolation": "LINEAR",
          "output": 76
        },
        {
          "input": 77,
          "interpolation": "LINEAR",
          "output": 78
        },
        {
          "input": 79,
          "interpolation": "LINEAR",
          "output": 80
        },
        {
          "input": 81,
          "interpolation": "LINEAR",
          "output": 82
        },
        {
          "input": 83,
          "interpolation": "LINEAR",
          "output": 84
        },
        {
          "input": 85,
          "interpolation": "LINEAR",
          "output": 86
        },
        {
          "input": 87,
          "interpolation": "LINEAR",
          "output": 88
        },
        {
          "input": 89,
          "interpolation": "LINEAR",
          "output": 90
        },
        {
          "input": 91,
          "interpolation": "LINEAR",
          "output": 92
        },
        {
          "input": 93,
          "interpolation": "LINEAR",
          "output": 94
        },
        {
          "input": 95,
          "interpolation": "LINEAR",
          "output": 96
        },
        {
          "input": 97,
          "interpolation": "LINEAR",
          "output": 98
        },
        {
          "input": 99,
          "interpolation": "LINEAR",
          "output": 100
        },
        {
          "input": 101,
          "interpolation": "LINEAR",
          "output": 102
        },
        {
          "input": 103,
          "interpolation": "LINEAR",
          "output": 104
        },
        {
          "input": 105,
          "interpolation": "LINEAR",
          "output": 106
        },
        {
          "input": 107,
          "interpolation": "LINEAR",
          "output": 108
        },
        {
          "input": 109,
          "interpolation": "LINEAR",
          "output": 110
        },
        {
          "input": 111,
          "interpolation": "LINEAR",
          "output": 112
        }
      ]
    }
  ],
  "asset": {
    "extras": {
      "author": "Alexander Snitko (https://sketchfab.com/alexandersnitko)",
      "license": "CC-BY-4.0 (http://creativecommons.org/licenses/by/4.0/)",
      "source": "https://sketchfab.com/3d-models/lopwoly-rigged-hand-in-psxps1-style-8e89510d963a4d6f99e863bd2742ab01",
      "title": "Lopwoly rigged hand in PSX/PS1 style"
    },
    "generator": "Sketchfab-14.41.0",
    "version": "2.0"
  },
  "bufferViews": [
    {
      "buffer": 0,
      "byteLength": 5536,
      "byteStride": 8,
      "name": "shortBufferViews",
      "target": 34962
    },
    {
      "buffer": 0,
      "byteLength": 9696,
      "byteOffset": 5536,
      "name": "floatBufferViews",
      "target": 34963
    },
    {
      "buffer": 0,
      "byteLength": 5536,
      "byteOffset": 15232,
      "byteStride": 8,
      "name": "floatBufferViews",
      "target": 34962
    },
    {
      "buffer": 0,
      "byteLength": 16608,
      "byteOffset": 20768,
      "byteStride": 12,
      "name": "floatBufferViews",
      "target": 34962
    },
    {
      "buffer": 0,
      "byteLength": 11072,
      "byteOffset": 37376,
      "byteStride": 16,
      "name": "floatBufferViews",
      "target": 34962
    },
    {
      "buffer": 0,
      "byteLength": 1344,
      "byteOffset": 48448,
      "name": "floatBufferViews"
    },
    {
      "buffer": 0,
      "byteLength": 43016,
      "byteOffset": 49792,
      "name": "floatBufferViews"
    },
    {
      "buffer": 0,
      "byteLength": 81504,
      "byteOffset": 92808,
      "byteStride": 12,
      "name": "floatBufferViews"
    },
    {
      "buffer": 0,
      "byteLength": 63392,
      "byteOffset": 174312,
      "byteStride": 16,
      "name": "floatBufferViews"
    }
  ],
  "buffers": [
    {
      "byteLength": 237704,
      "uri": "scene.bin"
    }
  ],
  "extensionsUsed": [
    "KHR_materials_unlit"
  ],
  "images": [
    {
      "uri": "textures/Hand_baseColor.png"
    }
  ],
  "materials": [
    {
      "doubleSided": true,
      "extensions": {
        "KHR_materials_unlit": {}
      },
      "name": "Hand",
      "pbrMetallicRoughness": {
        "baseColorTexture": {
          "index": 0
        },
        "metallicFactor": 0.0
      }
    }
  ],
  "meshes": [
    {
      "name": "Object_0",
      "primitives": [
        {
          "attributes": {
            "JOINTS_0": 5,
            "NORMAL": 1,
            "POSITION": 0,
            "TEXCOORD_0": 2,
            "WEIGHTS_0": 6
          },
          "indices": 3,
          "material": 0,
          "mode": 4
        }
      ]
    }
  ],
  "nodes": [
    {
      "children": [
        1
      ],
      "matrix": [
        1.0,
        0.0,
        0.0,
        0.0,
        0.0,
        2.220446049250313e-16,
        -1.0,
        0.0,
        0.0,
        1.0,
        2.220446049250313e-16,
        0.0,
        0.0,
        0.0,
        0.0,
        1.0
      ],
      "name": "Sketchfab_model"
    },
    {
      "children": [
        2
      ],
      "name": "root"
    },
    {
      "children": [
        3
      ],
      "matrix": [
        1.0,
        0.0,
        0.0,
        0.0,
        0.0,
        2.220446049250313e-16,
        1.0,
        0.0,
        0.0,
        -1.0,
        2.220446049250313e-16,
        0.0,
        0.0,
        0.0,
        0.0,
        1.0
      ],
      "name": "GLTF_SceneRootNode"
    },
    {
      "children": [
        4
      ],
      "name": "Hand_21"
    },
    {
      "children": [
        5,
        7,
        6
      ],
      "name": "GLTF_created_0"
    },
    {
      "children": [
        8
      ],
      "name": "GLTF_created_0_rootJoint"
    },
    {
      "name": "Cube_20"
    },
    {
      "mesh": 0,
      "name": "Object_7",
      "skin": 0
    },
    {
      "children": [
        9,
        16,
        20,
        24
      ],
      "name": "hand.L_19",
      "rotation": [
        0.02522129938006401,
        -0.03450760245323181,
        -0.03450760617852211,
        0.998490035533905
      ],
      "scale": [
        0.9999999403953552,
        0.9999999403953552,
        0.9999999403953552
      ],
      "translation": [
        -0.023915810510516167,
        0.5037744045257568,
        -0.09277913719415665
      ]
    },
    {
      "children": [
        10,
        13
      ],
      "name": "palm.01.L_6",
      "rotation": [
        -0.00889867078512907,
        0.041046056896448135,
        0.05898416042327881,
        0.9973750114440918
      ],
      "scale": [
        0.9999998807907104,
        1.0,
        0.9999999403953552
      ],
      "translation": [
        -0.13563388586044312,
        0.18439853191375732,
        -0.009664175100624561
      ]
    },
    {
      "children": [
        11
      ],
      "name": "f_index.01.L_2",
      "rotation": [
        0.04188382625579834,
        0.004032577387988567,
        -0.01479910034686327,
        0.9990047216415405
      ],
      "scale": [
        0.9999998211860657,
        0.9999999403953552,
        0.9999995827674866
      ],
      "translation": [
        0.001089405850507319,
        0.6953138113021851,
        -4.242021168465726e-05
      ]
    },
    {
      "children": [
        12
      ],
      "name": "f_index.02.L_1",
      "rotation": [
        0.05842750892043114,
        0.006380133796483278,
        0.006017610896378756,
        0.9982532262802124
      ],
      "scale": [
        0.9999998807907104,
        1.0,
        1.0000001192092896
      ],
      "translation": [
        -1.861531817581863e-09,
        0.43980005383491516,
        2.7091640930620997e-08
      ]
    },
    {
      "name": "f_index.03.L_0",
      "rotation": [
        0.040938008576631546,
        0.015993809327483177,
        0.013894475996494293,
        0.9989370703697205
      ],
      "scale": [
        0.9999999403953552,
        0.9999998807907104,
        0.9999998807907104
      ],
      "translation": [
        2.1973749042558666e-08,
        0.2766769230365753,
        -1.445963171420317e-08
      ]
    },
    {
      "children": [
        14
      ],
      "name": "thumb.01.L_5",
      "rotation": [
        -0.053803108632564545,
        0.32840174436569214,
        0.30369246006011963,
        0.8927645087242126
      ],
      "translation": [
        -0.09600180387496948,
        0.06531780958175659,
        0.0035972087644040585
      ]
    },
    {
      "children": [
        15
      ],
      "name": "thumb.02.L_4",
      "rotation": [
        0.11857342720031738,
        -0.07110772281885147,
        0.0008909146417863667,
        0.9903954863548279
      ],
      "scale": [
        1.0,
        1.000000238418579,
        0.9999999403953552
      ],
      "translation": [
        -1.0255839555384227e-07,
        0.4892919063568115,
        -2.1001795857955585e-08
      ]
    },
    {
      "name": "thumb.03.L_3",
      "rotation": [
        0.048784587532281876,
        -0.007302144542336464,
        0.018294164910912514,
        0.9986150860786438
      ],
      "scale": [
        0.9999998211860657,
        0.9999998807907104,
        0.9999998807907104
      ],
      "translation": [
        -1.0338148115351942e-08,
        0.3026648759841919,
        -1.497125268201671e-08
      ]
    },
    {
      "children": [
        17
      ],
      "name": "palm.02.L_10",
      "rotation": [
        -0.015663398429751396,
        0.017786433920264244,
        -0.004376939497888088,
        0.9997095465660095
      ],
      "scale": [
        0.9999999403953552,
        1.0,
        0.9999999403953552
      ],
      "translation": [
        -0.010313613340258598,
        0.19205056130886078,
        -0.008897379972040653
      ]
    },
    {
      "children": [
        18
      ],
      "name": "f_middle.01.L_9",
      "rotation": [
        0.054873276501894,
        0.0037645299453288317,
        0.023249007761478424,
        0.9982156157493591
      ],
      "scale": [
        1.0000001192092896,
        0.9999997019767761,
        0.9999998807907104
      ],
      "translation": [
        -0.004578090738505125,
        0.6767244935035706,
        0.0007522670784965158
      ]
    },
    {
      "children": [
        19
      ],
      "name": "f_middle.02.L_8",
      "rotation": [
        0.003354916349053383,
        0.015169763006269932,
        0.010135766118764877,
        0.999828040599823
      ],
      "scale": [
        1.0,
        1.000000238418579,
        1.0
      ],
      "translation": [
        -5.470573327670536e-09,
        0.4976712763309479,
        -7.108513244702408e-08
      ]
    },
    {
      "name": "f_middle.03.L_7",
      "rotation": [
        0.06197303161025047,
        0.004669426009058952,
        0.002732896711677313,
        0.9980632066726685
      ],
      "scale": [
        0.9999998211860657,
        1.0,
        0.9999999403953552
      ],
      "translation": [
        -1.0325280186407326e-08,
        0.34141355752944946,
        2.401319854072881e-08
      ]
    },
    {
      "children": [
        21
      ],
      "name": "palm.03.L_14",
      "rotation": [
        0.013768776319921017,
        -0.056221410632133484,
        -0.056923508644104004,
        0.9966992139816284
      ],
      "scale": [
        0.9999998807907104,
        0.9999998807907104,
        1.0
      ],
      "translation": [
        0.10730862617492676,
        0.17061230540275574,
        -0.08154000341892242
      ]
    },
    {
      "children": [
        22
      ],
      "name": "f_ring.01.L_13",
      "rotation": [
        0.023627648130059242,
        0.09001480787992477,
        0.03505928814411163,
        0.9950426816940308
      ],
      "scale": [
        1.000000238418579,
        0.9999997615814209,
        0.9999999403953552
      ],
      "translation": [
        0.009972812607884407,
        0.6703621745109558,
        -0.00017519058019388467
      ]
    },
    {
      "children": [
        23
      ],
      "name": "f_ring.02.L_12",
      "rotation": [
        -0.008094368502497673,
        0.030414408072829247,
        0.03157147392630577,
        0.9990058541297913
      ],
      "scale": [
        1.0000001192092896,
        1.0,
        0.9999999403953552
      ],
      "translation": [
        -1.7444942157496257e-09,
        0.435558021068573,
        -5.809626557606862e-09
      ]
    },
    {
      "name": "f_ring.03.L_11",
      "rotation": [
        0.2099609076976776,
        0.03873040899634361,
        0.01312940288335085,
        0.976854145526886
      ],
      "scale": [
        1.0,
        1.0,
        1.000000238418579
      ],
      "translation": [
        6.565836763172683e-09,
        0.2653302848339081,
        -2.0642524134473206e-08
      ]
    },
    {
      "children": [
        25
      ],
      "name": "palm.04.L_18",
      "rotation": [
        -0.019910451024770737,
        -0.15677590668201447,
        -0.1629607379436493,
        0.9738935828208923
      ],
      "scale": [
        0.9999997615814209,
        0.9999998211860657,
        0.9999998807907104
      ],
      "translation": [
        0.21167926490306854,
        0.1661168932914734,
        -0.03317626193165779
      ]
    },
    {
      "children": [
        26
      ],
      "name": "f_pinky.01.L_17",
      "rotation": [
        0.021750396117568016,
        0.07529941946268082,
        0.08306466788053513,
        0.9934571981430054
      ],
      "scale": [
        1.0,
        1.0,
        1.0000001192092896
      ],
      "translation": [
        0.0009805578738451004,
        0.63765549659729,
        0.0009326974977739155
      ]
    },
    {
      "children": [
        27
      ],
      "name": "f_pinky.02.L_16",
      "rotation": [
        0.14321696758270264,
        0.052863266319036484,
        0.018838804215192795,
        0.9880989193916321
      ],
      "scale": [
        1.0000003576278687,
        1.0000003576278687,
        1.000000238418579
      ],
      "translation": [
        -2.1962932805763558e-08,
        0.37372204661369324,
        2.1829233531889258e-08
      ]
    },
    {
      "name": "f_pinky.03.L_15",
      "rotation": [
        0.17006050050258636,
        0.028853226453065872,
        -0.0024307677522301674,
        0.9850081205368042
      ],
      "scale": [
        0.9999999403953552,
        1.0000001192092896,
        1.0
      ],
      "translation": [
        6.074515823684123e-08,
        0.1795365810394287,
        6.184592393765342e-08
      ]
    }
  ],
  "samplers": [
    {
      "magFilter": 9728,
      "minFilter": 9728,
      "wrapS": 10497,
      "wrapT": 10497
    }
  ],
  "scene": 0,
  "scenes": [
    {
      "name": "Sketchfab_Scene",
      "nodes": [
        0
      ]
    }
  ],
  "skins": [
    {
      "inverseBindMatrices": 4,
      "joints": [
        5,
        8,
        9,
        10,
        11,
        12,
        13,
        14,
        15,
        16,
        17,
        18,
        19,
        20,
        21,
        22,
        23,
        24,
        25,
        26,
        27
      ],
      "skeleton": 5
    }
  ],
  "textures": [
    {
      "sampler": 0,
      "source": 0
    }
  ]
}
